<svg width="35" height="35" viewBox="0 0 35 35" fill="none" xmlns="http://www.w3.org/2000/svg">
<g id="Frame 34683">
<path id="Vector" d="M12.2715 17.3757L19.8463 10.2556C20.0215 10.0908 20.2554 10 20.5047 10C20.7541 10 20.988 10.0908 21.1632 10.2556L21.721 10.7798C22.084 11.1214 22.084 11.6766 21.721 12.0177L15.3603 17.9967L21.7281 23.9823C21.9033 24.1471 22 24.3668 22 24.6011C22 24.8357 21.9033 25.0554 21.7281 25.2203L21.1702 25.7444C20.9949 25.9092 20.7612 26 20.5118 26C20.2624 26 20.0286 25.9092 19.8534 25.7444L12.2715 18.6178C12.0959 18.4525 11.9994 18.2317 12 17.9971C11.9994 17.7615 12.0959 17.5409 12.2715 17.3757Z" fill="#AAAAAA"/>
</g>
</svg>
