<svg width="8" height="13" viewBox="0 0 8 13" fill="none" xmlns="http://www.w3.org/2000/svg">
<path id="Vector" d="M0.192301 6.96824L5.53245 12.3083C5.65596 12.4319 5.82084 12.5 5.99664 12.5C6.17245 12.5 6.33732 12.4319 6.46083 12.3083L6.8541 11.9151C7.11 11.6589 7.11 11.2425 6.8541 10.9867L2.36984 6.50249L6.85908 2.01326C6.98259 1.88965 7.05078 1.72487 7.05078 1.54916C7.05078 1.37326 6.98259 1.20848 6.85908 1.08477L6.46581 0.691706C6.3422 0.568097 6.17742 0.5 6.00162 0.5C5.82582 0.5 5.66094 0.568097 5.53743 0.691706L0.192301 6.03664C0.0684973 6.16064 0.000497881 6.3262 0.000888395 6.50219C0.00049785 6.67888 0.0684972 6.84434 0.192301 6.96824Z" fill="#AAAAAA"/>
</svg>
