<svg width="39" height="45" viewBox="0 0 39 45" fill="none" xmlns="http://www.w3.org/2000/svg">
<path id="Vector" d="M22.4916 44.2872C29.6421 42.8538 38.8875 37.7099 38.8875 24.4086C38.8875 12.304 30.0273 4.24363 23.6562 0.539981C22.2425 -0.281872 20.5875 0.798949 20.5875 2.43419V6.61684C20.5875 9.91509 19.2008 15.9354 15.3476 18.4396C13.3803 19.718 11.2557 17.8045 11.0166 15.4706L10.8203 13.554C10.592 11.326 8.32286 9.9734 6.54216 11.3318C3.34311 13.7722 0 18.0456 0 24.4086C0 40.6752 12.0983 44.7419 18.1474 44.7419C18.4992 44.7419 18.8691 44.7314 19.2541 44.7092C16.2671 44.4539 11.4375 42.6006 11.4375 36.6078C11.4375 31.92 14.8575 28.7486 17.4559 27.2071C18.1547 26.7924 18.9728 27.3308 18.9728 28.1434V29.4911C18.9728 30.5226 19.3717 32.135 20.3212 33.2388C21.3959 34.4877 22.9731 33.1793 23.1003 31.5366C23.1406 31.0185 23.6617 30.6882 24.1105 30.9506C25.5775 31.8079 27.45 33.6393 27.45 36.6078C27.45 41.2926 24.8674 43.4476 22.4916 44.2872Z" fill="#9C3131"/>
</svg>
