<svg width="12" height="8" viewBox="0 0 12 8" fill="none" xmlns="http://www.w3.org/2000/svg">
<path id="Vector" d="M6.46824 7.33358L11.8083 1.99343C11.9319 1.86992 12 1.70504 12 1.52924C12 1.35343 11.9319 1.18856 11.8083 1.06504L11.4151 0.671779C11.1589 0.415879 10.7425 0.415879 10.4867 0.671779L6.00249 5.15603L1.51326 0.666803C1.38965 0.543292 1.22487 0.475097 1.04916 0.475097C0.87326 0.475097 0.708481 0.543292 0.584775 0.666803L0.191706 1.06007C0.0680971 1.18368 -3.81757e-08 1.34846 -4.58603e-08 1.52426C-5.3545e-08 1.70006 0.0680971 1.86494 0.191706 1.98845L5.53664 7.33358C5.66064 7.45738 5.8262 7.52538 6.00219 7.52499C6.17888 7.52538 6.34434 7.45738 6.46824 7.33358Z" fill="#AAAAAA"/>
</svg>
