<svg width="70" height="70" viewBox="0 0 70 70" fill="none" xmlns="http://www.w3.org/2000/svg">
<g id="Icon2/analytics" clip-path="url(#clip0_513_7574)">
<g id="Vector">
<path d="M70 70V0H0V70H70ZM61.25 13.125H8.75V8.75H61.25V13.125ZM21.875 21.875V35H35C35 42.2625 29.1375 48.125 21.875 48.125C14.6125 48.125 8.75 42.2625 8.75 35C8.75 27.7375 14.6125 21.875 21.875 21.875ZM26.25 30.625V21.875C31.0625 21.875 35 25.8125 35 30.625H26.25ZM61.25 26.25H43.75V21.875H61.25V26.25ZM61.25 39.375H43.75V30.625H61.25V39.375ZM61.25 48.125H43.75V43.75H61.25V48.125ZM61.25 61.25H8.75V56.875H61.25V61.25Z" fill="#9C3131"/>
</g>
</g>
<defs>
<clipPath id="clip0_513_7574">
<rect width="70" height="70" fill="white"/>
</clipPath>
</defs>
</svg>
