<svg width="70" height="70" viewBox="0 0 70 70" fill="none" xmlns="http://www.w3.org/2000/svg">
<g id="Icon2/site" clip-path="url(#clip0_513_7569)">
<g id="Vector">
<path d="M0 0V15.5556H68.25V0H0ZM10.5 10.6944C9.05023 10.6944 7.875 9.38863 7.875 7.77778C7.875 6.16693 9.05023 4.86111 10.5 4.86111C11.9498 4.86111 13.125 6.16693 13.125 7.77778C13.125 9.38863 11.9498 10.6944 10.5 10.6944ZM19.25 10.6944C17.8002 10.6944 16.625 9.38863 16.625 7.77778C16.625 6.16693 17.8002 4.86111 19.25 4.86111C20.6998 4.86111 21.875 6.16693 21.875 7.77778C21.875 9.38863 20.6998 10.6944 19.25 10.6944ZM28 10.6944C26.5502 10.6944 25.375 9.38863 25.375 7.77778C25.375 6.16693 26.5502 4.86111 28 4.86111C29.4498 4.86111 30.625 6.16693 30.625 7.77778C30.625 9.38863 29.4498 10.6944 28 10.6944Z" fill="#9C3131"/>
<path d="M0 21.3889V60.2778H42.208C42.0716 59.3273 42 58.3535 42 57.3611C42 53.7964 42.9145 50.4647 44.4951 47.6389H37.625V41.8056H49.6673C52.2542 39.9602 55.3291 38.8889 58.625 38.8889C62.2092 38.8889 65.532 40.1557 68.25 42.3075V21.3889H0ZM30.625 47.6389H13.125V41.8056H30.625V47.6389ZM30.625 35.9722H13.125V30.1389H30.625V35.9722ZM55.125 35.9722H37.625V30.1389H55.125V35.9722Z" fill="#9C3131"/>
<path d="M58.625 44.7222C52.3529 44.7222 47.25 50.3919 47.25 57.3611C47.25 64.3301 52.3529 70 58.625 70C64.8971 70 70 64.3303 70 57.3611C70 50.3919 64.8971 44.7222 58.625 44.7222ZM64.75 60.2778H61.25V64.1667H56V60.2778H52.5V54.4444H56V50.5556H61.25V54.4444H64.75V60.2778Z" fill="#9C3131"/>
</g>
</g>
<defs>
<clipPath id="clip0_513_7569">
<rect width="70" height="70" fill="white"/>
</clipPath>
</defs>
</svg>
