<svg width="70" height="70" viewBox="0 0 70 70" fill="none" xmlns="http://www.w3.org/2000/svg">
<g id="Icon2/geo" clip-path="url(#clip0_513_7577)">
<path id="Vector" d="M35 70C35 70 61.25 45.1237 61.25 26.25C61.25 19.2881 58.4844 12.6113 53.5616 7.68845C48.6387 2.76562 41.9619 0 35 0C28.0381 0 21.3613 2.76562 16.4384 7.68845C11.5156 12.6113 8.75 19.2881 8.75 26.25C8.75 45.1237 35 70 35 70ZM35 39.375C31.519 39.375 28.1806 37.9922 25.7192 35.5308C23.2578 33.0694 21.875 29.731 21.875 26.25C21.875 22.769 23.2578 19.4306 25.7192 16.9692C28.1806 14.5078 31.519 13.125 35 13.125C38.481 13.125 41.8194 14.5078 44.2808 16.9692C46.7422 19.4306 48.125 22.769 48.125 26.25C48.125 29.731 46.7422 33.0694 44.2808 35.5308C41.8194 37.9922 38.481 39.375 35 39.375Z" fill="#9C3131"/>
</g>
<defs>
<clipPath id="clip0_513_7577">
<rect width="70" height="70" fill="white"/>
</clipPath>
</defs>
</svg>
