<svg width="70" height="70" viewBox="0 0 70 70" fill="none" xmlns="http://www.w3.org/2000/svg">
<g id="Icon2/test" clip-path="url(#clip0_513_7582)">
<g id="Vector">
<path d="M0 0V70L57.3424 58.448L70 70V0H0ZM7.43737 5.71867H25.013V23.0037H7.43737V5.71867ZM62.3611 54.0622H7.43737C6.34898 54.0622 5.40167 53.4459 5.40167 52.6147C5.40167 51.8407 6.26835 51.1671 7.43737 51.1671H62.3611C63.4495 51.1671 64.3968 51.7834 64.3968 52.6147C64.3162 53.3886 63.4495 54.0622 62.3611 54.0622ZM62.3611 43.0549H7.43737C6.34898 43.0549 5.40167 42.4386 5.40167 41.6073C5.40167 40.8333 6.26835 40.1597 7.43737 40.1597H62.3611C63.4495 40.1597 64.3968 40.776 64.3968 41.6073C64.3162 42.3956 63.4495 43.0549 62.3611 43.0549ZM62.3611 32.0618H7.43737C6.34898 32.0618 5.40167 31.4455 5.40167 30.6143C5.40167 29.783 6.26835 29.1667 7.43737 29.1667H62.3611C63.4495 29.1667 64.3968 29.783 64.3968 30.6143C64.3968 31.4455 63.4495 32.0618 62.3611 32.0618ZM62.3611 21.0545H36.2597C35.1713 21.0545 34.224 20.4382 34.224 19.6069C34.224 18.8329 35.0907 18.1593 36.2597 18.1593H62.3611C63.4495 18.1593 64.3968 18.7756 64.3968 19.6069C64.3162 20.4382 63.4495 21.0545 62.3611 21.0545ZM62.3611 10.0471H36.2597C35.1713 10.0471 34.224 9.43079 34.224 8.59951C34.224 7.82555 35.0907 7.15193 36.2597 7.15193H62.3611C63.4495 7.15193 64.3968 7.76822 64.3968 8.59951C64.3162 9.44513 63.4495 10.0471 62.3611 10.0471Z" fill="#9C3131"/>
<path d="M55.6896 62.0594L16.2655 69.9996H64.3968L55.6896 62.0594Z" fill="#9C3131"/>
</g>
</g>
<defs>
<clipPath id="clip0_513_7582">
<rect width="70" height="70" fill="white"/>
</clipPath>
</defs>
</svg>
