<svg width="289" height="322" viewBox="0 0 289 322" fill="none" xmlns="http://www.w3.org/2000/svg">
<circle cx="29.1914" cy="61.3527" r="210.188" transform="rotate(12.5414 29.1914 61.3527)" stroke="#4C1F1F" stroke-width="5" stroke-dasharray="13 13"/>
<circle cx="28.9997" cy="61.9998" r="247.021" transform="rotate(2.45983 28.9997 61.9998)" stroke="#1F1F1F" stroke-width="5" stroke-dasharray="331 331"/>
<path d="M120.903 -68.6794C155.176 -44.5255 178.633 -7.45152 185.841 33.9665L183.378 34.3952C186.794 54.0237 186.502 74.6462 181.902 95.3239C177.303 116.002 168.824 134.803 157.409 151.132L159.459 152.565C135.372 187.021 98.4107 210.655 57.1304 218.002L56.6923 215.54C37.0665 219.033 16.4466 218.786 -4.22161 214.188C-24.8899 209.59 -43.6701 201.073 -59.9644 189.59L-61.4046 191.633C-95.6775 167.479 -119.134 130.406 -126.342 88.9875L-123.879 88.5588C-127.295 68.9303 -127.003 48.3079 -122.404 27.6301C-117.804 6.95241 -109.325 -11.8489 -97.9107 -28.1783L-99.9597 -29.6106C-75.8734 -64.0672 -38.9119 -87.7009 2.36847 -95.0478L2.80652 -92.5865C22.4324 -96.0794 43.0522 -95.8318 63.7204 -91.2341C84.3887 -86.6364 103.169 -78.1193 119.463 -66.6359L120.903 -68.6794Z" stroke="#1F1F1F" stroke-width="5" stroke-dasharray="135 135"/>
</svg>
