<svg width="101" height="26" viewBox="0 0 101 26" fill="none" xmlns="http://www.w3.org/2000/svg">
<g id="HUGO 2" clip-path="url(#clip0_1_98)">
<g id="Vector">
<path d="M58.3406 0.316675C52.4184 1.62742 48.7144 6.05386 48.3914 12.1993C48.0683 18.3448 51.2556 23.1365 56.9408 25.1134C58.7498 25.7365 62.9276 25.801 65.1673 25.2423C66.9762 24.7911 69.1728 23.7382 70.2927 22.7927L71.1541 22.0406V11.3398H62.3246V15.8522H66.0071L65.8779 19.3762L64.9089 19.8704C62.7338 20.9877 59.5035 20.9448 57.6084 19.763C55.4549 18.4522 54.4858 16.0671 54.5935 12.3282C54.6796 10.2439 54.7658 9.79271 55.2826 8.71833C56.0364 7.2142 57.4792 5.90345 58.9221 5.40924C61.334 4.61419 64.7581 5.45221 66.1794 7.19271L66.8255 7.98775L68.7206 6.18279C69.7543 5.17287 70.6372 4.31337 70.6803 4.22742C70.8095 3.94808 68.4837 2.07866 67.2131 1.45552C65.1888 0.488576 63.6167 0.166262 61.0325 0.18775C59.7835 0.209237 58.5775 0.252213 58.3406 0.316675Z" fill="#9C3131"/>
<path d="M85.5831 0.252579C80.8669 1.02613 76.8829 4.8939 75.8707 9.66415C75.5046 11.4476 75.5477 14.7567 75.9784 16.4327C77.4858 22.3848 82.8266 26.0377 89.3087 25.5865C95.1878 25.1782 99.624 21.4823 100.787 16.003C101.261 13.7683 101.088 10.4377 100.399 8.24597C99.1287 4.31373 95.92 1.39142 91.8067 0.42448C90.5362 0.123654 86.9183 0.0162157 85.5831 0.252579ZM91.5268 5.7534C92.1298 6.05423 92.905 6.6344 93.2281 7.02117C95.6185 9.85754 95.5323 16.1964 93.0558 18.7534C90.3424 21.5898 84.9155 21.1385 82.9558 17.9369C81.6421 15.8096 81.3407 11.684 82.2667 9.01952C82.7835 7.55836 84.5279 5.83935 85.9276 5.38811C87.5428 4.87241 90.1485 5.04431 91.5268 5.7534Z" fill="#9C3131"/>
<path d="M0 25.3554H6.02985V15.0413H13.8902L13.761 25.3554H19.8124V0.644636H13.9979V10.0992H6.02985L6.00832 8.53059C5.98678 6.48927 5.8791 1.97687 5.83603 1.2248L5.8145 0.644636H0V25.3554Z" fill="#9C3131"/>
<path d="M24.2814 9.62646C24.2814 19.3174 24.3675 20.1769 25.4443 21.8959C26.1119 22.9488 27.5117 24.1306 28.7607 24.7108C31.6895 26.086 36.3626 26.1075 39.4422 24.7322C40.8204 24.1306 42.4786 22.4975 43.1678 21.0794L43.7707 19.876L43.8999 0.64464H38.0854L38.0208 9.49753C37.9562 18.286 37.9562 18.3719 37.4609 19.1455C36.8149 20.2198 35.695 20.7141 34.0368 20.6926C32.314 20.6711 31.2373 20.1339 30.6558 18.9951C30.2251 18.2 30.2036 17.7703 30.139 9.39009L30.0744 0.64464H24.2814V9.62646Z" fill="#9C3131"/>
</g>
</g>
<defs>
<clipPath id="clip0_1_98">
<rect width="101" height="26" fill="white"/>
</clipPath>
</defs>
</svg>
