<svg width="22" height="22" viewBox="0 0 22 22" fill="none" xmlns="http://www.w3.org/2000/svg">
<g id="Group">
<path id="Vector" d="M1.71511 0.651744C1.60473 0.678094 1.39742 0.757144 1.25742 0.825653C1.04203 0.931053 0.955876 0.994293 0.753952 1.19192C0.541259 1.40008 0.492797 1.46332 0.374335 1.70574C0.129334 2.19321 0.150872 1.50548 0.150872 9.04946V15.7371L1.69357 14.2298L3.23358 12.72L8.55091 12.7147L13.8682 12.7068L14.0729 12.6489C14.6652 12.4828 15.1309 12.1113 15.4029 11.5817C15.6344 11.1285 15.6183 11.5026 15.6183 6.63317C15.6183 1.77161 15.6371 2.18004 15.4029 1.71891C15.1552 1.23144 14.7513 0.883623 14.2129 0.693904L13.9759 0.612219L7.94514 0.606949C2.18088 0.601679 1.90627 0.604314 1.71511 0.651744Z" fill="#818181"/>
<path id="Vector_2" d="M17.7005 9.28076C17.7005 11.4415 17.6924 11.9685 17.6628 12.174C17.5605 12.8354 17.2535 13.4256 16.777 13.8788C16.3543 14.282 15.902 14.5165 15.2639 14.6693C15.0916 14.7115 14.7174 14.7141 10.7085 14.722L6.33887 14.7326V15.7391C6.33887 16.8616 6.35771 17.1093 6.4681 17.415C6.5731 17.7022 6.69425 17.8919 6.92849 18.1343C7.16541 18.3794 7.43733 18.5533 7.76041 18.6666L7.99464 18.7483L13.3685 18.7615L18.7424 18.7746L20.2824 20.2818L21.8197 21.7891L21.8143 15.025L21.8062 8.26102L21.7309 8.05022C21.4536 7.28081 20.7966 6.75644 19.9889 6.66685C19.8624 6.65368 19.297 6.6405 18.7316 6.6405H17.7005V9.28076Z" fill="#818181"/>
</g>
</svg>
