<svg width="20" height="18" viewBox="0 0 20 18" fill="none" xmlns="http://www.w3.org/2000/svg">
<path d="M9.73072 0.461797C9.82173 0.187955 10.2091 0.187956 10.3001 0.461798L12.2638 6.37029C12.3046 6.49292 12.4193 6.57567 12.5485 6.57567H18.8886C19.1808 6.57567 19.3006 6.95101 19.0623 7.12025L13.9448 10.7551C13.8373 10.8315 13.7923 10.9691 13.8339 11.0943L15.7913 16.9839C15.8828 17.2591 15.5693 17.491 15.3329 17.3231L10.1891 13.6695C10.0851 13.5956 9.94571 13.5956 9.84168 13.6695L4.69791 17.3231C4.46148 17.491 4.14803 17.2591 4.2395 16.9839L6.19693 11.0943C6.23853 10.9691 6.1935 10.8315 6.08597 10.7551L0.968517 7.12025C0.730246 6.95101 0.849981 6.57567 1.14224 6.57567H7.4823C7.61153 6.57567 7.72623 6.49292 7.76699 6.37029L9.73072 0.461797Z" fill="#F7C412"/>
</svg>
