<svg width="17" height="17" viewBox="0 0 17 17" fill="none" xmlns="http://www.w3.org/2000/svg">
<path id="Vector" d="M5.34375 2.56308V0.78064C5.34375 0.623167 5.40631 0.472145 5.51766 0.360795C5.629 0.249445 5.78003 0.18689 5.9375 0.18689H10.6875C10.845 0.18689 10.996 0.249445 11.1073 0.360795C11.2187 0.472145 11.2812 0.623167 11.2812 0.78064V2.56308H16.0312C16.1887 2.56308 16.3397 2.62563 16.4511 2.73698C16.5624 2.84833 16.625 2.99935 16.625 3.15683C16.625 3.3143 16.5624 3.46532 16.4511 3.57667C16.3397 3.68802 16.1887 3.75058 16.0312 3.75058H0.59375C0.436278 3.75058 0.285255 3.68802 0.173905 3.57667C0.0625556 3.46532 0 3.3143 0 3.15683C0 2.99935 0.0625556 2.84833 0.173905 2.73698C0.285255 2.62563 0.436278 2.56308 0.59375 2.56308H5.34375ZM6.53125 2.56308H10.0938V1.37558H6.53125V2.56308ZM2.375 16.8131C2.21753 16.8131 2.06651 16.7505 1.95516 16.6392C1.84381 16.5278 1.78125 16.3768 1.78125 16.2193V3.75058H14.8438V16.2193C14.8438 16.3768 14.7812 16.5278 14.6698 16.6392C14.5585 16.7505 14.4075 16.8131 14.25 16.8131H2.375ZM6.53125 13.2506C6.68872 13.2506 6.83975 13.188 6.95109 13.0767C7.06244 12.9653 7.125 12.8143 7.125 12.6568V6.71933C7.125 6.56185 7.06244 6.41083 6.95109 6.29948C6.83975 6.18813 6.68872 6.12558 6.53125 6.12558C6.37378 6.12558 6.22275 6.18813 6.11141 6.29948C6.00006 6.41083 5.9375 6.56185 5.9375 6.71933V12.6568C5.9375 12.8143 6.00006 12.9653 6.11141 13.0767C6.22275 13.188 6.37378 13.2506 6.53125 13.2506ZM10.0938 13.2506C10.2512 13.2506 10.4022 13.188 10.5136 13.0767C10.6249 12.9653 10.6875 12.8143 10.6875 12.6568V6.71933C10.6875 6.56185 10.6249 6.41083 10.5136 6.29948C10.4022 6.18813 10.2512 6.12558 10.0938 6.12558C9.93628 6.12558 9.78525 6.18813 9.6739 6.29948C9.56256 6.41083 9.5 6.56185 9.5 6.71933V12.6568C9.5 12.8143 9.56256 12.9653 9.6739 13.0767C9.78525 13.188 9.93628 13.2506 10.0938 13.2506Z" fill="#9C3131"/>
</svg>
