<svg width="6" height="12" viewBox="0 0 6 12" fill="none" xmlns="http://www.w3.org/2000/svg">
<path id="Vector" d="M5.83709 5.57078L1.29221 0.67573C1.1871 0.562422 1.04677 0.5 0.897152 0.5C0.74753 0.5 0.607207 0.562422 0.50209 0.67573L0.167391 1.03613C-0.0503999 1.27098 -0.0503999 1.65267 0.167391 1.88715L3.98384 5.99772L0.163156 10.1128C0.0580388 10.2262 0 10.3772 0 10.5383C0 10.6995 0.0580388 10.8506 0.163156 10.964L0.497855 11.3243C0.603055 11.4376 0.743295 11.5 0.892917 11.5C1.04254 11.5 1.18286 11.4376 1.28798 11.3243L5.83709 6.42475C5.94246 6.31108 6.00033 6.15932 6 5.99799C6.00033 5.83603 5.94246 5.68436 5.83709 5.57078Z" fill="#8D8D8D"/>
</svg>
