<svg width="12" height="13" viewBox="0 0 12 13" fill="none" xmlns="http://www.w3.org/2000/svg">
<path id="Vector" d="M11.7337 5.74419L10.9177 4.79642C10.7617 4.61647 10.6357 4.28055 10.6357 4.04061V3.02087C10.6357 2.38503 10.1136 1.86316 9.47759 1.86316H8.45753C8.22352 1.86316 7.8815 1.73719 7.70149 1.58123L6.75343 0.765434C6.3394 0.411522 5.66136 0.411522 5.24134 0.765434L4.29926 1.58723C4.11925 1.73719 3.77723 1.86316 3.54321 1.86316H2.50515C1.86911 1.86316 1.34708 2.38503 1.34708 3.02087V4.04661C1.34708 4.28055 1.22107 4.61647 1.07106 4.79642L0.261016 5.75019C-0.0870052 6.16409 -0.0870052 6.83592 0.261016 7.24982L1.07106 8.20358C1.22107 8.38353 1.34708 8.71945 1.34708 8.95339V9.97913C1.34708 10.615 1.86911 11.1368 2.50515 11.1368H3.54321C3.77723 11.1368 4.11925 11.2628 4.29926 11.4188L5.24734 12.2346C5.66136 12.5885 6.3394 12.5885 6.75943 12.2346L7.70749 11.4188C7.8875 11.2628 8.22352 11.1368 8.46353 11.1368H9.48359C10.1196 11.1368 10.6417 10.615 10.6417 9.97913V8.95939C10.6417 8.72545 10.7677 8.38353 10.9237 8.20358L11.7397 7.25581C12.0878 6.84192 12.0877 6.15809 11.7337 5.74419ZM8.49353 5.36629L5.59536 8.26356C5.51135 8.34754 5.39735 8.39553 5.27734 8.39553C5.15733 8.39553 5.04333 8.34754 4.95932 8.26356L3.50721 6.81193C3.3332 6.63797 3.3332 6.35004 3.50721 6.17608C3.68122 6.00213 3.96924 6.00213 4.14325 6.17608L5.27734 7.3098L7.8575 4.73044C8.03151 4.55648 8.31952 4.55648 8.49353 4.73044C8.66754 4.9044 8.66754 5.19232 8.49353 5.36629Z" fill="#6DAEFF"/>
</svg>
