<svg width="85" height="66" viewBox="0 0 85 66" fill="none" xmlns="http://www.w3.org/2000/svg">
<path id="Vector" d="M63.1101 0C51.0206 0 41.2203 9.70089 41.2203 21.6678C41.2203 33.6344 51.0206 43.3356 63.1101 43.3356C75.1997 43.3356 85 33.6344 85 21.6678C85 9.70089 75.1997 0 63.1101 0ZM63.2295 36.4888C61.2705 36.4888 59.6707 34.9052 59.6707 32.966C59.6707 31.0155 61.2705 29.4432 63.2295 29.4432C65.1886 29.4432 66.7884 31.0268 66.7884 32.966C66.7884 34.9052 65.1886 36.4888 63.2295 36.4888ZM71.796 19.6442C71.286 20.3901 70.3935 21.2735 68.9907 22.2832L67.5882 23.2928C66.8464 23.9125 66.3361 24.5322 66.0696 25.3008C65.9188 25.8056 65.8032 26.5628 65.8032 27.5728H60.5983C60.7143 25.4387 60.8418 23.9355 61.2243 23.1666C61.4678 22.3977 62.3603 21.388 63.7513 20.3897L65.0382 19.2652C65.5482 18.9096 65.9074 18.5193 66.1742 18.1407C66.6842 17.4983 66.9507 16.7524 66.9507 15.8687C66.9507 14.859 66.5682 13.9983 66.0582 13.2297C65.5482 12.4838 64.5278 12.1052 63.0093 12.1052C61.4908 12.1052 60.4708 12.5986 59.8447 13.6083C59.3347 14.3542 58.9522 15.3638 58.9522 16.2473C58.9522 16.3965 58.9522 16.3965 58.9522 16.511C58.8014 17.8993 57.6654 19.0125 56.1469 19.0125C54.6284 19.0125 53.4576 17.888 53.3415 16.4997C53.3415 16.4997 53.3415 15.88 53.3415 15.6162C53.724 12.4607 55.0109 10.2117 57.1551 8.82345C58.6854 7.94 60.5979 7.43518 62.7425 7.43518C65.652 7.43518 68.0631 8.05486 69.9759 9.44313C71.8655 10.8314 72.8855 12.8397 73.0825 15.5017C73.0828 17.1314 72.6888 18.5197 71.796 19.6442ZM76.6963 48.6958L56.5793 53.2592C56.4397 54.2271 56.0204 55.2645 55.392 56.0942C54.2047 57.8918 52.3883 59.2056 50.293 59.7589C48.1974 60.243 45.9624 59.8971 44.146 58.6527L26.8229 47.7282C25.9847 47.244 25.8451 46.2761 26.3338 45.5155C26.8229 44.755 27.8007 44.5476 28.4993 45.0314L45.8922 55.956C48.1974 57.3389 51.201 56.7166 52.6676 54.5039C54.1345 52.2913 53.436 49.249 51.2007 47.7973L29.5469 34.2454C25.9847 32.0328 21.8632 30.3043 17.9519 32.2401L0 42.3347L0.0698214 61.9712L12.8525 53.1901C14.8784 52.706 17.1133 53.121 18.9995 54.2963L34.0874 63.6997C37.7896 65.9814 42.3297 66.5346 46.2413 65.4973L78.9316 58.0992C81.516 57.5459 83.2622 54.9877 82.6338 52.2222C81.9349 49.7331 79.3505 48.1428 76.6963 48.6958Z" fill="#818181"/>
</svg>
