<svg width="17" height="17" viewBox="0 0 17 17" fill="none" xmlns="http://www.w3.org/2000/svg">
<path id="Vector" fill-rule="evenodd" clip-rule="evenodd" d="M10.8716 2.29167C10.8716 0.916667 9.51771 0 8.45978 0C7.72343 0 7.66587 0.561 7.55259 1.66833C7.50234 2.15417 7.44205 2.7445 7.30866 3.4375C6.95602 5.27267 5.7373 7.6175 4.57157 8.31875V13.75C4.56791 15.8125 5.2531 16.5 8.22225 16.5H11.6692C13.6572 16.5 14.1386 15.1864 14.3177 14.6997L14.3295 14.6667C14.4337 14.3862 14.6566 14.1653 14.9124 13.915C15.1956 13.6345 15.519 13.3164 15.7593 12.8333C16.0434 12.2622 16.006 11.7544 15.9722 11.3025C15.9512 11.0284 15.932 10.7754 15.9877 10.5417C16.0462 10.2942 16.1211 10.1063 16.1933 9.92658C16.3239 9.60025 16.4445 9.29775 16.4445 8.70833C16.4445 7.33333 15.7611 6.4185 14.3295 6.4185H10.5062C10.5062 6.4185 10.8716 3.66667 10.8716 2.29167ZM1.37037 7.33333C1.00693 7.33333 0.658368 7.4782 0.401373 7.73606C0.144378 7.99392 0 8.34366 0 8.70833V15.125C7.65905e-09 15.4897 0.144378 15.8394 0.401373 16.0973C0.658368 16.3551 1.00693 16.5 1.37037 16.5C1.73382 16.5 2.08238 16.3551 2.33938 16.0973C2.59637 15.8394 2.74075 15.4897 2.74075 15.125V8.70833C2.74075 8.34366 2.59637 7.99392 2.33938 7.73606C2.08238 7.4782 1.73382 7.33333 1.37037 7.33333Z" fill="#9C3131"/>
</svg>
