<svg width="90" height="91" viewBox="0 0 90 91" fill="none" xmlns="http://www.w3.org/2000/svg">
<g id="icon4/document" clip-path="url(#clip0_630_1400)">
<g id="Vector">
<path fill-rule="evenodd" clip-rule="evenodd" d="M57.8572 0.5V26.9706H90V90.5H0V0.5H57.8572ZM45.0064 64.0294H19.2857V69.3288H45.0064V64.0294ZM64.2857 53.4412H19.2857V58.7353H64.2857V53.4412ZM57.8572 42.8529H19.2857V48.147H57.8572V42.8529ZM70.7143 32.2647H19.2857V37.5588H70.7143V32.2647ZM45.0064 21.6818H19.2857V26.9759H45.0064V21.6818Z" fill="#9C3131"/>
<path fill-rule="evenodd" clip-rule="evenodd" d="M85.304 16.7011C87.0332 18.1199 88.2547 19.8246 89.039 21.6775H64.2825V1.28989C66.5325 1.93578 68.6025 2.94692 70.3318 4.36578L85.304 16.7011Z" fill="#9C3131"/>
</g>
</g>
<defs>
<clipPath id="clip0_630_1400">
<rect width="90" height="90" fill="white" transform="translate(0 0.5)"/>
</clipPath>
</defs>
</svg>
