<svg width="515" height="515" viewBox="0 0 515 515" fill="none" xmlns="http://www.w3.org/2000/svg">
<path d="M0 0.00390625V514.996H515V0.00390625H0ZM42.1807 42.1967H279.54C279.794 45.3038 280.113 48.3928 280.367 51.517C280.629 56.8802 280.754 62.1529 280.754 67.4418C280.754 79.7042 280.063 91.8198 278.825 103.822L276.789 123.198L295.556 117.884L300.788 117.131C310.917 117.156 319.137 125.372 319.161 135.502C319.137 145.664 310.917 153.888 300.788 153.921C296.791 153.921 293.23 152.67 290.135 150.478L273.977 138.984L269.616 158.327C262.973 187.685 253.993 217.083 244.893 247.127C220.122 239.115 194.881 232.42 169.358 227.032C169.795 224.498 170.457 222.078 170.457 219.454C170.441 194.7 150.407 174.653 125.666 174.653C102.763 174.695 84.1311 191.896 81.4213 214.091C68.3492 213.036 55.2529 212.669 42.1807 212.341V42.1967ZM42.1807 238.509C59.4835 238.861 76.7541 239.727 94.0287 241.517L113.722 243.57L108.024 224.611L107.277 219.453C107.305 209.316 115.525 201.091 125.667 201.067C135.82 201.091 144.041 209.316 144.069 219.453C144.069 223.149 142.982 226.532 141.102 229.451L130.351 245.95L149.71 249.605C179.407 255.229 208.699 263.127 237.443 272.397C230.123 297.02 223.19 322.249 217.585 348.517C214.651 347.92 211.794 347.07 208.699 347.07C183.977 347.07 163.915 367.083 163.915 391.846C163.915 416.494 183.821 436.426 208.412 436.63C208.261 442.05 207.955 447.446 207.955 452.842C207.955 459.513 208.208 466.2 208.548 472.806H42.1807V238.509ZM472.819 472.804H235.301C234.965 466.165 234.348 459.544 234.348 452.84C234.348 442.327 234.635 431.789 235.227 421.177L236.436 399.202L216.476 408.457C214.032 409.626 211.448 410.247 208.697 410.247C198.568 410.214 190.339 401.991 190.319 391.844C190.339 381.682 198.568 373.458 208.697 373.458C212.822 373.458 216.536 374.798 219.652 377.113L237.261 390.145L240.56 368.487C240.919 366.084 241.206 363.926 241.545 361.85C247.088 334.013 254.662 307.141 262.577 280.498C286.988 287.832 311.607 293.137 336.288 297.256L335.409 303.388C335.409 328.176 355.467 348.18 380.214 348.18C404.191 348.18 423.604 329.312 424.76 305.587C427.695 305.619 430.643 305.75 433.558 305.75C446.707 305.75 459.771 305.063 472.818 304.139L472.819 472.804ZM472.819 277.693C459.747 278.673 446.679 279.352 433.559 279.352C425.775 279.352 417.98 279.213 410.227 278.869L390.09 278.018L397.33 296.846L398.601 303.386C398.569 313.564 390.352 321.772 380.215 321.788C370.037 321.772 361.829 313.564 361.809 303.386C361.809 299.87 362.814 296.625 364.518 293.82L375.166 276.595L355.133 273.832C326.588 269.835 298.184 263.638 270.033 255.152C277.738 229.833 285.145 204.49 291.505 178.82C294.547 179.473 297.566 180.291 300.788 180.291C325.51 180.274 345.568 160.253 345.568 135.499C345.536 112.501 328.167 93.8214 305.894 91.2464C306.405 83.3323 307.149 75.5329 307.149 67.4397C307.149 61.6762 307.026 55.8392 306.716 50.0182V49.8L306.692 49.5958C306.487 47.1194 306.225 44.649 306.022 42.1967H472.821V277.693H472.819Z" fill="#9C3131"/>
</svg>
