<svg width="90" height="91" viewBox="0 0 90 91" fill="none" xmlns="http://www.w3.org/2000/svg">
<g id="icon4/manager" clip-path="url(#clip0_513_7412)">
<path id="Vector" d="M68.8018 27.0752C68.2421 26.3057 67.5638 25.7811 66.9321 25.4262C66.9288 24.471 66.8581 23.12 66.603 21.562C66.7754 19.703 67.3775 9.46657 60.3484 4.85132C56.0129 2.00452 51.1853 0.5 46.3877 0.5C42.4884 0.5 38.775 1.48736 35.9307 3.2801C33.3692 4.89496 31.9584 6.65147 31.2116 7.88794C29.0028 7.95752 24.4265 8.76001 22.4025 13.9591C20.4875 18.877 22.0337 21.9153 23.171 23.3234C23.0966 24.1379 23.0698 24.8539 23.0679 25.4258C22.4362 25.7807 21.7579 26.3053 21.1982 27.0748C19.9321 28.8161 19.7167 31.1511 20.5578 34.0164C22.1303 39.3741 25.7999 40.5533 27.7579 40.7901C28.964 42.9385 31.6146 47.3294 34.2671 49.5355C35.3267 50.4166 36.7043 51.1603 38.3614 51.7466C40.4764 52.4943 42.7103 52.8735 45 52.8735C47.2897 52.8735 49.5236 52.4943 51.6386 51.7466C53.2957 51.1603 54.6733 50.4166 55.7329 49.5355C58.3854 47.3294 61.036 42.9385 62.2421 40.7901C64.1996 40.5533 67.8692 39.3736 69.4422 34.016C70.2833 31.1515 70.0679 28.8161 68.8018 27.0752ZM64.9714 32.9747C64.0129 36.2407 62.2999 36.7282 61.3637 36.7282C61.2971 36.7282 61.2472 36.7249 61.2177 36.7228C60.1483 36.482 59.1594 36.9826 58.6918 37.879C57.7768 39.6314 54.8942 44.6012 52.5799 46.5261C51.9436 47.0552 51.0531 47.5246 49.9339 47.9202C46.7934 49.0307 43.2061 49.0307 40.0661 47.9202C38.9469 47.5246 38.0564 47.0552 37.4201 46.5261C35.1058 44.6012 32.2232 39.6314 31.3082 37.879C30.9191 37.1338 30.171 36.6631 29.3147 36.6631C29.1409 36.6631 28.9626 36.6825 28.7819 36.7232C28.7523 36.7257 28.7024 36.7286 28.6363 36.7286C27.7006 36.7286 25.9875 36.2407 25.0286 32.9755C24.5568 31.3685 24.561 30.0867 25.0397 29.367C25.3184 28.9487 25.714 28.8079 25.8433 28.7716C27.0832 28.6518 27.8299 27.6846 27.7264 26.57C27.7241 26.5429 27.6433 25.586 27.7458 24.1296C29.336 23.5207 31.8766 22.3196 34.0185 20.2584C35.1086 19.2089 35.9062 17.923 36.4741 16.7433C38.0226 17.8699 40.2149 19.1936 43.1155 20.3375C48.0836 22.2965 58.0125 23.2283 62.2038 23.5466C62.3771 25.3241 62.2759 26.5371 62.2731 26.5659C62.164 27.6838 62.9122 28.6518 64.1562 28.7716C64.2856 28.8079 64.6811 28.9491 64.9598 29.367C65.439 30.0863 65.4432 31.3681 64.9714 32.9747ZM79.7884 60.4706L59.5873 53.2713C59.006 53.0646 58.3558 53.0765 57.7837 53.3042C57.2126 53.5327 56.7694 53.9581 56.5568 54.4826L51.4787 66.9923L50.4732 64.4164L52.073 60.9318C52.3641 60.2969 52.2819 59.5743 51.8526 59.0044C51.4233 58.435 50.7042 58.0932 49.9344 58.0932H40.0661C39.2962 58.0932 38.5767 58.435 38.1479 59.0044C37.7186 59.5743 37.6363 60.2969 37.9274 60.9318L39.5273 64.4164L38.5217 66.9923L33.4436 54.4826C33.231 53.9581 32.7879 53.5323 32.2167 53.3042C31.6446 53.0761 30.994 53.0642 30.4131 53.2713L10.2116 60.4706C4.00832 62.6813 0 67.957 0 73.9104V88.4413C0 89.5785 1.03466 90.5 2.31054 90.5H87.6895C88.9653 90.5 90 89.5785 90 88.4413V73.9104C90 67.957 85.9917 62.6817 79.7884 60.4706ZM79.0864 79.8506C79.0864 80.9879 78.0518 81.9094 76.7759 81.9094H61.2629C59.9871 81.9094 58.9524 80.9879 58.9524 79.8506V73.4315C58.9524 72.2943 59.9871 71.3728 61.2629 71.3728H76.7759C78.0518 71.3728 79.0864 72.2943 79.0864 73.4315V79.8506Z" fill="#9C3131"/>
</g>
<defs>
<clipPath id="clip0_513_7412">
<rect width="90" height="90" fill="white" transform="translate(0 0.5)"/>
</clipPath>
</defs>
</svg>
