<svg width="70" height="70" viewBox="0 0 70 70" fill="none" xmlns="http://www.w3.org/2000/svg">
<g id="Icon3/bocks" clip-path="url(#clip0_514_3526)">
<g id="Vector">
<path d="M33.1737 0L22.8274 2.9373L21.1654 0.173074L20.6391 0.0686216L0.152915 16.5854L0 16.9176V69.589L0.370747 69.9998H14.2112L14.5818 69.589V17.1271L33.4726 0.733565L33.1737 0Z" fill="#9C3131"/>
<path d="M50.8846 0L40.5383 2.9373L38.8763 0.173074L38.3499 0.0686216L17.864 18.1849L17.7112 18.5172V69.589L18.0819 69.9998H31.9222L32.2928 69.589V17.1271L51.1836 0.733725L50.8846 0Z" fill="#9C3131"/>
<path d="M69.5485 0.134872L58.3 2.93749L56.638 0.173262L56.1117 0.0688098L35.6254 18.1851L35.4725 18.5174V69.5892L35.8432 70H49.6835L49.8619 69.802L49.9081 69.8692L69.805 53.0375L69.951 52.7113L70 0.536366L69.5485 0.134872ZM67.2452 5.10715L67.2475 51.0294L50.0548 65.7471V19.4269L67.2452 5.10715Z" fill="#9C3131"/>
</g>
</g>
<defs>
<clipPath id="clip0_514_3526">
<rect width="70" height="70" fill="white"/>
</clipPath>
</defs>
</svg>
