<svg width="70" height="70" viewBox="0 0 70 70" fill="none" xmlns="http://www.w3.org/2000/svg">
<g id="Icon3/list" clip-path="url(#clip0_514_3545)">
<path id="Vector" d="M0 0V69.952H42.0636C46.8462 69.952 42.8713 69.9519 46.3077 69.952C52.2308 69.952 44.8089 69.952 52.2308 69.952C59.6526 69.952 50.8846 69.8852 57.8846 69.9522C60.9936 69.9819 58.1539 70.0431 61.3846 69.952L62.0329 69.9522H70V0H0ZM20.6327 6.73232H49.3675V11.3917H20.6327V6.73232ZM30.98 63.1918H7.59075V58.5325H30.98V63.1918ZM62.4093 46.5048H7.59075V41.8455H62.4093V46.5048ZM62.4093 37.7267H7.59075V33.0673H62.4093V37.7267ZM62.4093 28.9484H7.59075V24.2891H62.4093V28.9484ZM62.4093 20.1701H7.59075V15.5108H62.4093V20.1701Z" fill="#9C3131"/>
</g>
<defs>
<clipPath id="clip0_514_3545">
<rect width="70" height="70" fill="white"/>
</clipPath>
</defs>
</svg>
