<svg width="70" height="27" viewBox="0 0 70 27" fill="none" xmlns="http://www.w3.org/2000/svg">
<path id="Vector" d="M13.3163 3.44469C12.5131 4.34718 11.2278 5.05899 9.94255 4.95731C9.78189 3.73705 10.4111 2.44052 11.1475 1.63972C11.9508 0.711818 13.3565 0.0508442 14.4945 0C14.6284 1.2711 14.1062 2.51679 13.3163 3.44469ZM14.4811 5.19882C12.6202 5.09713 11.027 6.20299 10.1434 6.20299C9.24637 6.20299 7.89418 5.24966 6.42149 5.27508C4.507 5.3005 2.72639 6.3301 1.74906 7.96982C-0.259153 11.2493 1.22692 16.1049 3.16819 18.7742C4.11874 20.0962 5.25673 21.5452 6.75619 21.4944C8.17533 21.4435 8.73763 20.6173 10.4513 20.6173C12.1784 20.6173 12.6737 21.4944 14.1732 21.4689C15.7262 21.4435 16.7035 20.147 17.6541 18.8251C18.7385 17.3251 19.1803 15.8634 19.2071 15.7871C19.1803 15.7617 16.2082 14.6813 16.1814 11.4272C16.1546 8.70706 18.5243 7.41054 18.6314 7.33427C17.2926 5.45304 15.2041 5.24966 14.4811 5.19882ZM25.2317 1.51261V21.3291H28.4716V14.5541H32.9566C37.0534 14.5541 39.9318 11.8848 39.9318 8.02067C39.9318 4.15651 37.1069 1.51261 33.0637 1.51261H25.2317ZM28.4716 4.10567H32.2069C35.0184 4.10567 36.625 5.5293 36.625 8.03338C36.625 10.5375 35.0184 11.9738 32.1935 11.9738H28.4716V4.10567ZM45.8493 21.4817C47.8843 21.4817 49.772 20.5029 50.6289 18.9522H50.6958V21.3291H53.6947V11.4654C53.6947 8.60537 51.2849 6.76227 47.5764 6.76227C44.1357 6.76227 41.5919 8.6308 41.4982 11.1984H44.4168C44.6578 9.97817 45.8493 9.17737 47.4827 9.17737C49.4641 9.17737 50.5753 10.0544 50.5753 11.6687V12.7619L46.5321 12.9907C42.7701 13.2068 40.7351 14.6685 40.7351 17.2107C40.7351 19.7784 42.837 21.4817 45.8493 21.4817ZM46.7196 19.1301C44.9925 19.1301 43.8947 18.342 43.8947 17.1345C43.8947 15.8888 44.9523 15.1643 46.9739 15.0499L50.5753 14.8338V15.9524C50.5753 17.8082 48.9152 19.1301 46.7196 19.1301ZM57.6978 26.7186C60.8574 26.7186 62.3434 25.5746 63.6421 22.1045L69.332 6.95294H66.0385L62.2229 18.6598H62.156L58.3404 6.95294H54.9532L60.4423 21.38L60.1478 22.257C59.6524 23.7442 58.8491 24.3162 57.4166 24.3162C57.1623 24.3162 56.6669 24.2908 56.4661 24.2654V26.6423C56.6535 26.6932 57.4568 26.7186 57.6978 26.7186Z" fill="#525353"/>
</svg>
