<svg width="76" height="29" viewBox="0 0 76 29" fill="none" xmlns="http://www.w3.org/2000/svg">
<g id="Group 34353">
<g id="Group 34352">
<path id="Vector" fill-rule="evenodd" clip-rule="evenodd" d="M36.3467 22.5897V14.1188L40.9293 14.1171C42.8186 14.1183 44.4064 13.5247 45.6927 12.3362C46.9927 11.2082 47.7194 9.58657 47.6824 7.89637C47.7082 6.21537 46.9828 4.60572 45.6927 3.4813C44.4177 2.28645 42.7029 1.63448 40.9293 1.67035H33.5732V22.5897H36.3467ZM36.3467 11.5483V4.24593L40.9982 4.24424C42.035 4.21589 43.0343 4.62018 43.7426 5.35421C44.4553 6.02552 44.8573 6.94752 44.8573 7.91045C44.8573 8.87338 44.4553 9.79557 43.7426 10.4667C43.0255 11.1853 42.0293 11.578 40.9982 11.5483H36.3467Z" fill="#5F6368"/>
<path id="Vector_2" fill-rule="evenodd" clip-rule="evenodd" d="M58.9116 9.40096C57.7252 8.33926 56.1072 7.80859 54.057 7.80859C51.4236 7.80859 49.4348 8.74317 48.091 10.6127L50.534 12.1033C51.4367 10.8369 52.6627 10.2037 54.2121 10.2037C55.1998 10.1926 56.1558 10.5425 56.8893 11.1836C57.6205 11.7694 58.0411 12.6428 58.0349 13.5622V14.1764C56.9691 13.5922 55.6127 13.3 53.9657 13.3C52.0363 13.3023 50.4939 13.7407 49.3385 14.6154C48.183 15.4899 47.6052 16.6678 47.6052 18.1489C47.5801 19.4975 48.184 20.7853 49.2489 21.6541C50.3444 22.5889 51.706 23.0563 53.3335 23.0563C55.24 23.0563 56.7674 22.2383 57.916 20.6026H58.0366V22.5889H60.6895V13.7674C60.6907 11.918 60.098 10.4625 58.9116 9.40096ZM51.3884 19.96C50.8074 19.5542 50.4648 18.9013 50.4685 18.2073C50.4685 17.4278 50.8458 16.7786 51.6055 16.2444C52.3578 15.7181 53.2972 15.455 54.4239 15.455C55.971 15.455 57.1769 15.7887 58.0417 16.4564C58.0417 17.5848 57.5823 18.5678 56.6635 19.4059C55.836 20.2077 54.714 20.6591 53.5436 20.661C52.7634 20.6751 52.0019 20.4276 51.3884 19.96Z" fill="#5F6368"/>
<path id="Vector_3" fill-rule="evenodd" clip-rule="evenodd" d="M75.9369 8.27832L66.6754 28.9006H63.8121L67.2491 21.6848L61.1592 8.27832H64.174L68.5755 18.5602H68.6358L72.9168 8.27832H75.9369Z" fill="#5F6368"/>
<path id="Vector_4" fill-rule="evenodd" clip-rule="evenodd" d="M25.1327 12.2922C25.1339 11.4733 25.0623 10.6557 24.9192 9.84863H13.2217V14.4772H19.9215C19.6445 15.971 18.7495 17.2903 17.4441 18.1293V21.1338H21.4427C23.7839 19.0423 25.1327 15.9494 25.1327 12.2922Z" fill="#282828"/>
<path id="Vector_5" fill-rule="evenodd" clip-rule="evenodd" d="M13.2338 24.0373C16.5812 24.0373 19.3995 22.9722 21.4548 21.1363L17.4562 18.1318C16.3434 18.8628 14.9101 19.2801 13.2338 19.2801C9.99854 19.2801 7.25245 17.167 6.27056 14.3193H2.15137V17.4156C4.25681 21.4751 8.54494 24.0369 13.2338 24.0373Z" fill="#333333"/>
<path id="Vector_6" fill-rule="evenodd" clip-rule="evenodd" d="M6.26321 14.3186C5.744 12.8265 5.744 11.2105 6.26321 9.71837V6.62207H2.14402C0.382984 10.0173 0.382984 14.0196 2.14402 17.4149L6.26321 14.3186Z" fill="#3C3C3C"/>
<path id="Vector_7" fill-rule="evenodd" clip-rule="evenodd" d="M13.2338 4.75799C15.0027 4.72982 16.7118 5.37748 17.9921 6.56068L21.5323 3.13051C19.2874 1.08765 16.3134 -0.0339557 13.2338 0.000783531C8.54494 0.00097131 4.25681 2.56304 2.15137 6.62227L6.27056 9.71856C7.25245 6.87107 9.99854 4.75799 13.2338 4.75799Z" fill="#444444"/>
</g>
</g>
</svg>
