<svg width="41" height="25" viewBox="0 0 41 25" fill="none" xmlns="http://www.w3.org/2000/svg">
<g id="Group 34351">
<path id="Vector" d="M26.0984 22.0767H15.2061V2.64697H26.0984V22.0767Z" fill="#444444"/>
<path id="Vector_2" d="M15.9054 12.3593C15.9054 8.4179 17.7646 4.90695 20.6599 2.64444C18.5426 0.989959 15.8706 0.00244141 12.9665 0.00244141C6.09156 0.00244141 0.518555 5.53475 0.518555 12.3593C0.518555 19.1838 6.09156 24.7161 12.9665 24.7161C15.8706 24.7161 18.5426 23.7287 20.6599 22.0741C17.7646 19.8116 15.9054 16.3007 15.9054 12.3593Z" fill="#525353"/>
<path id="Vector_3" d="M40.7935 12.3593C40.7935 19.1838 35.2205 24.7161 28.3456 24.7161C25.4415 24.7161 22.7694 23.7287 20.6514 22.0741C23.5475 19.8116 25.4066 16.3007 25.4066 12.3593C25.4066 8.4179 23.5475 4.90695 20.6514 2.64444C22.7694 0.989959 25.4415 0.00244141 28.3456 0.00244141C35.2205 0.00244141 40.7935 5.53475 40.7935 12.3593Z" fill="#313131"/>
</g>
</svg>
