<svg width="80" height="23" viewBox="0 0 80 23" fill="none" xmlns="http://www.w3.org/2000/svg">
<g id="Group 34356">
<g id="g5">
<path id="path7" fill-rule="evenodd" clip-rule="evenodd" d="M21.8138 0.323243V0.332881C21.804 0.332881 18.7282 0.323243 17.908 3.2244C17.1561 5.88459 15.0373 13.229 14.9787 13.4314H14.3928C14.3928 13.4314 12.2251 5.92314 11.4635 3.21476C10.6433 0.313604 7.55772 0.323243 7.55772 0.323243H0.527344V22.3951H7.55772V9.28694H7.85066H8.14359L12.2446 22.3951H17.1269L21.2279 9.29658H21.8138V22.3951H28.8442V0.323243H21.8138Z" fill="#525353"/>
</g>
<g id="g9">
<path id="path11" fill-rule="evenodd" clip-rule="evenodd" d="M47.4942 0.323242C47.4942 0.323242 45.4339 0.506371 44.4672 2.63645L39.4873 13.4314H38.9015V0.323242H31.8711V22.3951H38.5109C38.5109 22.3951 40.6688 22.2024 41.6355 20.0819L46.5177 9.28694H47.1036V22.3951H54.134V0.323242H47.4942Z" fill="#525353"/>
</g>
<g id="g13">
<path id="path15" fill-rule="evenodd" clip-rule="evenodd" d="M57.2539 10.3467V22.3947H64.2843V15.3586H71.9005C75.2204 15.3586 78.0326 13.2671 79.0774 10.3467H57.2539Z" fill="#525353"/>
</g>
<g id="g17">
<path id="path24" fill-rule="evenodd" clip-rule="evenodd" d="M71.9024 0.323242H56.2695C57.0507 4.52558 60.2436 7.89901 64.374 8.99778C65.3114 9.24838 66.2976 9.38332 67.3131 9.38332H79.3624C79.4698 8.88212 79.5186 8.37129 79.5186 7.84118C79.5186 3.68704 76.1108 0.323242 71.9024 0.323242Z" fill="#393939"/>
</g>
</g>
</svg>
