<svg width="28" height="29" viewBox="0 0 28 29" fill="none" xmlns="http://www.w3.org/2000/svg">
<g id="Group 34355">
<path id="Vector" d="M27.5988 10.2918C27.2688 7.71737 26.3446 5.37398 24.7273 3.6577C23.0111 2.04043 20.6677 1.11628 18.0932 0.786222C15.6178 0.456168 13.9346 0.555184 13.9346 0.555184C13.9346 0.555184 12.2513 0.489173 9.77587 0.786222C7.20144 1.11628 4.85805 2.04043 3.14177 3.6577C1.5245 5.37398 0.600348 7.71737 0.270293 10.2918C-0.0597614 12.7672 0.00624956 14.4505 0.00624956 14.4505C0.00624956 14.4505 -0.0597614 16.1338 0.237288 18.6092C0.567343 21.1833 1.4915 23.527 3.10876 25.2433C4.82505 26.8605 7.16844 27.7844 9.74286 28.1144C12.2183 28.4445 13.9016 28.3458 13.9016 28.3458C13.9016 28.3458 15.5848 28.4115 18.0602 28.1144C20.6347 27.7844 22.9781 26.8605 24.6943 25.2433C26.3116 23.5273 27.2358 21.1833 27.5658 18.6092C27.8959 16.1338 27.7969 14.4505 27.7969 14.4505C27.7969 14.4505 27.9289 12.7672 27.5988 10.2918Z" fill="#525353"/>
<path id="Vector_2" d="M5.10938 10.3916H7.61779C8.01386 10.3916 8.34391 10.4576 8.67397 10.5896C9.00402 10.7217 9.26806 10.9197 9.4991 11.1507C9.73014 11.3818 9.92817 11.6458 10.0602 11.9759C10.1922 12.3059 10.2582 12.636 10.2582 12.999C10.2582 13.3621 10.1922 13.6921 10.0602 14.0222C9.92817 14.3523 9.73014 14.6166 9.4991 14.8473C9.26806 15.078 8.97101 15.2767 8.67397 15.4081C8.37692 15.5401 8.01386 15.6068 7.61779 15.6068H6.4956V17.6858H5.14238V10.3916H5.10938ZM6.4626 11.6461V14.3196H7.51877C7.71681 14.3196 7.91484 14.2866 8.07987 14.2206C8.24489 14.1546 8.37692 14.0555 8.50894 13.9235C8.64096 13.7915 8.70697 13.6595 8.77298 13.4944C8.83899 13.3294 8.872 13.1644 8.872 12.9664C8.872 12.7683 8.83899 12.6033 8.77298 12.4383C8.70697 12.2732 8.60795 12.1412 8.50894 12.0092C8.37692 11.8772 8.24489 11.7782 8.07987 11.7122C7.91484 11.6461 7.71681 11.6131 7.51877 11.6131H6.4626V11.6461ZM13.3937 17.6858C13.0307 17.6858 12.7006 17.6201 12.3376 17.4878C12.0075 17.3558 11.6775 17.1577 11.4134 16.927C11.1494 16.6626 10.9183 16.3656 10.7533 16.0025C10.5883 15.6395 10.4893 15.2104 10.4893 14.7483C10.4893 14.2862 10.5553 13.8572 10.7203 13.4941C10.8853 13.1311 11.1164 12.834 11.3804 12.57C11.6445 12.3059 11.9745 12.1409 12.3046 12.0089C12.6676 11.8768 12.9977 11.8108 13.3937 11.8108C13.7898 11.8108 14.1529 11.8768 14.4499 12.0089C14.78 12.1409 15.044 12.3389 15.2751 12.57V11.8108H16.6283V17.6855H15.2751V16.8603C15.077 17.1247 14.78 17.3224 14.4499 17.4874C14.1199 17.6201 13.7898 17.6858 13.3937 17.6858ZM13.6248 16.4649C13.8888 16.4649 14.1199 16.4319 14.3179 16.3329C14.5159 16.2339 14.714 16.1349 14.879 15.9699C15.044 15.8048 15.143 15.6398 15.2421 15.4418C15.3411 15.2431 15.3741 15.0124 15.3741 14.7817C15.3741 14.5503 15.3411 14.3193 15.2421 14.1215C15.143 13.9235 15.044 13.7255 14.879 13.5935C14.714 13.4284 14.5489 13.3294 14.3179 13.2304C14.0869 13.0984 13.8558 13.0654 13.6248 13.0654C13.3937 13.0654 13.1627 13.0984 12.9317 13.1974C12.7006 13.2964 12.5356 13.3954 12.3706 13.5605C12.2056 13.7255 12.0735 13.8905 12.0075 14.0885C11.9085 14.2866 11.8755 14.5176 11.8755 14.7487C11.8755 14.9797 11.9085 15.2104 12.0075 15.4084C12.1065 15.6071 12.2386 15.8048 12.3706 15.9699C12.5356 16.1349 12.7336 16.2336 12.9317 16.3329C13.1297 16.3986 13.3607 16.4649 13.6248 16.4649ZM18.5096 11.8438L20.1599 15.8375L21.6781 11.8438H23.0974L19.6318 20.3593H18.2456L19.4668 17.4221L17.0904 11.8438H18.5096Z" fill="#292929"/>
</g>
</svg>
