<svg width="72" height="23" viewBox="0 0 72 23" fill="none" xmlns="http://www.w3.org/2000/svg">
<g id="Group 34354">
<path id="Vector" d="M31.6751 21.9016H25.9287L29.523 1.06665H35.2691L31.6751 21.9016Z" fill="#525353"/>
<path id="Vector_2" d="M52.5101 1.5758C51.3766 1.15421 49.5789 0.688721 47.3561 0.688721C41.6813 0.688721 37.6852 3.5257 37.6606 7.58161C37.6134 10.5741 40.5217 12.2362 42.6969 13.234C44.92 14.2537 45.6759 14.9191 45.6759 15.8279C45.6532 17.2238 43.8794 17.8671 42.2249 17.8671C39.9306 17.8671 38.7014 17.5354 36.8332 16.7589L36.0766 16.426L35.2725 21.1029C36.6203 21.6785 39.1034 22.1894 41.6813 22.2119C47.7109 22.2119 51.6363 19.4188 51.6827 15.0965C51.7056 12.7247 50.17 10.9073 46.8592 9.42228C44.8493 8.46898 43.6185 7.82611 43.6185 6.85078C43.6422 5.964 44.6596 5.0558 46.9284 5.0558C48.7965 5.0113 50.1691 5.4323 51.2089 5.85359L51.7285 6.07487L52.5101 1.5758Z" fill="#525353"/>
<path id="Vector_3" fill-rule="evenodd" clip-rule="evenodd" d="M62.788 1.06665H67.2328L71.8688 21.9013H66.5481C66.5481 21.9013 66.0274 19.5075 65.8625 18.7759H58.4845C58.2712 19.3298 57.2785 21.9013 57.2785 21.9013H51.249L59.7845 2.79527C60.3759 1.44315 61.4173 1.06665 62.788 1.06665ZM62.4338 8.6911C62.4338 8.6911 60.6128 13.3235 60.1396 14.5204H64.916C64.6797 13.4789 63.5915 8.49155 63.5915 8.49155L63.19 6.69641C63.0208 7.15862 62.7763 7.79421 62.6112 8.22294C62.4995 8.51342 62.4242 8.70896 62.4338 8.6911Z" fill="#525353"/>
<path id="Vector_4" fill-rule="evenodd" clip-rule="evenodd" d="M1.03111 1.06641H10.2764C11.5297 1.11031 12.5466 1.4871 12.8774 2.81779L14.8867 12.3907L14.8873 12.3924L15.5022 15.2738L21.1298 1.06641H27.2062L18.1738 21.8793H12.0972L6.97541 3.77555C5.20826 2.80693 3.19143 2.02789 0.936523 1.4874L1.03111 1.06641Z" fill="#525353"/>
</g>
</svg>
