<svg width="33" height="24" viewBox="0 0 33 24" fill="none" xmlns="http://www.w3.org/2000/svg">
<path id="Vector" d="M20.9721 0.742432C14.5592 0.742432 9.41723 5.96999 9.41723 12.3592C9.41723 18.8065 14.6169 23.976 20.9721 23.976C27.3273 23.976 32.527 18.7484 32.527 12.3592C32.527 5.96999 27.3273 0.742432 20.9721 0.742432ZM20.9721 16.5993C18.6034 16.5993 16.639 14.6245 16.639 12.243C16.639 9.86161 18.6034 7.88675 20.9721 7.88675C23.3409 7.88675 25.3052 9.86161 25.3052 12.243C25.2474 14.7407 23.3409 16.5993 20.9721 16.5993ZM9.35946 4.05322V20.9556H5.25747L0 4.05322H9.35946Z" fill="#525353"/>
</svg>
