<svg width="100" height="100" viewBox="0 0 100 100" fill="none" xmlns="http://www.w3.org/2000/svg">
<g id="icon7/exp">
<rect x="1.5" y="1.5" width="97" height="97" stroke="#9C3131" stroke-width="3"/>
<path id="Vector" d="M75.3784 57.541C75.61 56.2851 75.61 55.0025 75.3784 53.7466L77.6765 52.4194C77.9437 52.268 78.0595 51.9562 77.9704 51.6623C77.3736 49.7383 76.3493 47.9925 75.0132 46.5496C74.8083 46.3269 74.4788 46.2734 74.2116 46.4249L71.9135 47.752C70.9426 46.9237 69.8292 46.2823 68.6268 45.8548V43.2005C68.6268 42.8976 68.413 42.6304 68.119 42.568C66.1327 42.1227 64.1108 42.1405 62.2225 42.568C61.9285 42.6304 61.7148 42.8976 61.7148 43.2005V45.8548C60.5123 46.2823 59.3989 46.9237 58.428 47.752L56.13 46.4249C55.8717 46.2734 55.5332 46.3269 55.3283 46.5496C53.9922 47.9925 52.9679 49.7383 52.3711 51.6623C52.2821 51.9562 52.4068 52.268 52.6651 52.4194L54.9631 53.7466C54.7315 55.0025 54.7315 56.2851 54.9631 57.541L52.6651 58.8682C52.3979 59.0196 52.2821 59.3314 52.3711 59.6253C52.9679 61.5493 53.9922 63.2862 55.3283 64.738C55.5332 64.9607 55.8628 65.0142 56.13 64.8627L58.428 63.5356C59.3989 64.3639 60.5123 65.0053 61.7148 65.4328V68.0871C61.7148 68.39 61.9285 68.6572 62.2225 68.7196C64.2088 69.1649 66.2307 69.1471 68.119 68.7196C68.413 68.6572 68.6268 68.39 68.6268 68.0871V65.4328C69.8292 65.0053 70.9426 64.3639 71.9135 63.5356L74.2116 64.8627C74.4699 65.0142 74.8083 64.9607 75.0132 64.738C76.3493 63.2951 77.3736 61.5493 77.9704 59.6253C78.0595 59.3314 77.9348 59.0196 77.6765 58.8682L75.3784 57.541ZM65.1797 59.9638C62.7925 59.9638 60.8597 58.022 60.8597 55.6438C60.8597 53.2656 62.8015 51.3238 65.1797 51.3238C67.5579 51.3238 69.4997 53.2656 69.4997 55.6438C69.4997 58.022 67.5668 59.9638 65.1797 59.9638ZM29.5509 47.0929C32.6952 47.0929 35.2515 44.5365 35.2515 41.3923C35.2515 38.2481 32.6952 35.6917 29.5509 35.6917C26.4067 35.6917 23.8503 38.2481 23.8503 41.3923C23.8503 44.5365 26.4067 47.0929 29.5509 47.0929ZM49.503 49.9432C49.6723 49.9432 49.8326 49.8987 50.0018 49.8898C50.7411 47.9569 51.8278 46.1398 53.2351 44.6167C53.8943 43.9041 54.8295 43.4944 55.8093 43.4944C56.4239 43.4944 57.0296 43.6547 57.5551 43.9665L58.2588 44.3762C58.33 44.3317 58.4013 44.296 58.4726 44.2515C59.0961 42.9511 59.4702 41.5081 59.4702 39.9761C59.4702 34.4625 55.0077 30 49.4941 30C43.9806 30 39.527 34.4536 39.527 39.9671C39.527 45.4807 43.9895 49.9432 49.503 49.9432ZM58.8734 67.2677C58.6685 67.1608 58.4636 67.0361 58.2677 66.9203C57.5373 67.3478 56.9049 67.7932 55.8182 67.7932C54.8473 67.7932 53.9121 67.3835 53.244 66.6709C51.614 64.9073 50.367 62.7606 49.6634 60.4715C48.7103 57.3985 51.8812 56.0446 51.9614 55.9912C51.9525 55.7596 51.9525 55.528 51.9614 55.2964L51.2577 54.8867C50.9193 54.6907 50.6342 54.4413 50.3848 54.1652C50.0909 54.183 49.8059 54.2186 49.5119 54.2186C47.3208 54.2186 45.2721 53.6842 43.4105 52.7935H42.6712C36.9973 52.7935 32.4012 57.3896 32.4012 63.0546V65.6199C32.4012 67.9803 32.5 68 32.4012 69.8953H59.4256C59.0961 69.3609 58.8734 68.7552 58.8734 68.0871V67.2677ZM36.4184 51.5999C35.3851 50.5756 33.9689 49.9432 32.4012 49.9432H26.7006C23.5564 49.9432 21 52.4996 21 55.6438V58.4941C21 60.0707 21 60 21.0001 61.3444H29.7202C30.2813 57.1224 32.8288 53.5684 36.4184 51.5999Z" fill="white"/>
</g>
</svg>
