<svg width="100" height="100" viewBox="0 0 100 100" fill="none" xmlns="http://www.w3.org/2000/svg">
<g id="icon7/contract">
<rect x="1.5" y="1.5" width="97" height="97" stroke="#9C3131" stroke-width="3"/>
<path id="Vector" fill-rule="evenodd" clip-rule="evenodd" d="M21.0002 17.0006C25.0002 17.0007 23.9448 17 27.5772 17H63.5621L78.0002 31.4381V82.7692C73.6835 82.7692 75.0555 82.7692 71.4233 82.7692H21C21 78.5 21.0002 79.8245 21.0002 76.1923V17.0006ZM47.3079 34.5385H34.1541V38.9231H47.3079V34.5385ZM64.8464 47.6923H34.1541V52.0769H64.8464V47.6923ZM44.2593 64.8265C42.4886 65.3022 41.1057 66.6545 40.6184 68.1163L36.4588 66.7299C37.433 63.8071 39.9963 61.4319 43.1217 60.5922C46.2222 59.7593 49.7571 60.457 52.8178 63.2726C53.7371 63.0021 54.648 62.8499 55.5487 62.8017C57.9107 62.675 60.0333 63.2709 61.853 64.0289C63.1894 64.5858 64.4851 65.29 65.5747 65.8819C65.9224 66.0709 66.2499 66.2489 66.5502 66.4067C67.9678 67.1508 68.7478 67.4231 69.231 67.4231V71.8077C67.5214 71.8077 65.8351 70.9834 64.5123 70.2889C64.1041 70.0745 63.709 69.8601 63.3192 69.6483C62.2788 69.0831 61.2756 68.5385 60.1665 68.0764C58.6977 67.4643 57.2579 67.1008 55.7833 67.1802C55.5689 67.1916 55.3501 67.2126 55.1267 67.2446L55.132 67.3029C55.2491 68.7271 54.6613 69.8982 53.9043 70.7392C52.5075 72.2913 50.2318 73.1055 48.5221 73.4164C47.6315 73.5782 46.6735 73.6462 45.83 73.523C45.4171 73.4624 44.8847 73.3357 44.3832 73.0371C43.8499 72.7197 43.2178 72.1124 43.0558 71.1404C42.9051 70.2363 43.2454 69.4909 43.5428 69.0327C43.8495 68.56 44.2625 68.1514 44.6893 67.7984C45.5198 67.1105 46.7298 66.3668 48.3464 65.5491L48.4643 65.4636C46.9372 64.5713 45.4707 64.5012 44.2593 64.8265Z" fill="white"/>
</g>
</svg>
