<svg width="100" height="100" viewBox="0 0 100 100" fill="none" xmlns="http://www.w3.org/2000/svg">
<g id="icon7/manager">
<rect x="1.5" y="1.5" width="97" height="97" stroke="#9C3131" stroke-width="3"/>
<path id="Vector" d="M64.5744 36.8897C64.22 36.3427 63.7904 35.9698 63.3903 35.7175C63.3883 35.0385 63.3435 34.0783 63.1819 32.9708C63.2911 31.6494 63.6724 24.3734 59.2207 21.0929C56.4749 19.0694 53.4174 18 50.3789 18C47.9093 18 45.5575 18.7018 43.7561 19.9761C42.1338 21.1239 41.2403 22.3725 40.7674 23.2513C39.3684 23.3008 36.4701 23.8712 35.1882 27.5667C33.9754 31.0624 34.9547 33.2219 35.675 34.2229C35.6278 34.8018 35.6109 35.3107 35.6097 35.7172C35.2096 35.9695 34.78 36.3424 34.4256 36.8894C33.6236 38.1271 33.4873 39.7868 34.0199 41.8235C35.0159 45.6317 37.3399 46.4699 38.58 46.6381C39.3438 48.1653 41.0226 51.2863 42.7025 52.8544C43.3736 53.4807 44.246 54.0093 45.2955 54.426C46.6351 54.9575 48.0498 55.2271 49.5 55.2271C50.9502 55.2271 52.3649 54.9575 53.7045 54.426C54.754 54.0093 55.6264 53.4807 56.2975 52.8544C57.9774 51.2863 59.6562 48.1653 60.42 46.6381C61.6598 46.4699 63.9838 45.6314 64.9801 41.8232C65.5127 39.7871 65.3764 38.1271 64.5744 36.8897ZM62.1485 41.083C61.5415 43.4045 60.4566 43.751 59.8637 43.751C59.8215 43.751 59.7899 43.7486 59.7712 43.7472C59.0939 43.576 58.4676 43.9318 58.1715 44.569C57.592 45.8146 55.7663 49.3471 54.3006 50.7153C53.8976 51.0914 53.3337 51.425 52.6248 51.7063C50.6358 52.4956 48.3639 52.4956 46.3752 51.7063C45.6663 51.425 45.1024 51.0914 44.6994 50.7153C43.2337 49.3471 41.408 45.8146 40.8285 44.569C40.5821 44.0392 40.1083 43.7047 39.566 43.7047C39.4559 43.7047 39.343 43.7185 39.2285 43.7475C39.2098 43.7492 39.1782 43.7513 39.1363 43.7513C38.5437 43.7513 37.4588 43.4045 36.8515 41.0836C36.5527 39.9413 36.5553 39.0302 36.8585 38.5187C37.035 38.2213 37.2855 38.1212 37.3675 38.0955C38.1527 38.0103 38.6256 37.3228 38.5601 36.5306C38.5586 36.5112 38.5074 35.8311 38.5724 34.7959C39.5794 34.3631 41.1885 33.5093 42.545 32.0443C43.2354 31.2982 43.7406 30.3842 44.1003 29.5457C45.081 30.3465 46.4694 31.2874 48.3065 32.1004C51.453 33.493 57.7412 34.1553 60.3957 34.3815C60.5055 35.6449 60.4414 36.5071 60.4396 36.5276C60.3706 37.3222 60.8444 38.0103 61.6323 38.0955C61.7142 38.1212 61.9647 38.2216 62.1412 38.5187C62.4447 39.0299 62.4473 39.941 62.1485 41.083ZM71.5326 60.6271L58.7386 55.5098C58.3705 55.3629 57.9587 55.3713 57.5964 55.5332C57.2346 55.6956 56.954 55.9979 56.8193 56.3708L53.6032 65.2626L52.9664 63.4317L53.9796 60.9549C54.164 60.5036 54.1119 59.9899 53.84 59.5849C53.5681 59.1801 53.1127 58.9372 52.6251 58.9372H46.3752C45.8876 58.9372 45.4319 59.1801 45.1603 59.5849C44.8884 59.9899 44.8363 60.5036 45.0207 60.9549L46.0339 63.4317L45.3971 65.2626L42.181 56.3708C42.0463 55.9979 41.7657 55.6953 41.4039 55.5332C41.0416 55.3711 40.6295 55.3626 40.2616 55.5098L27.4674 60.6271C23.5386 62.1984 21 65.9484 21 70.1801V80.5086C21 81.3169 21.6553 81.9719 22.4633 81.9719H76.5367C77.3447 81.9719 78 81.3169 78 80.5086V70.1801C78 65.9484 75.4614 62.1987 71.5326 60.6271ZM71.0881 74.4024C71.0881 75.2107 70.4328 75.8657 69.6247 75.8657H59.7999C58.9918 75.8657 58.3365 75.2107 58.3365 74.4024V69.8397C58.3365 69.0313 58.9918 68.3763 59.7999 68.3763H69.6247C70.4328 68.3763 71.0881 69.0313 71.0881 69.8397V74.4024Z" fill="white"/>
</g>
</svg>
