<svg width="13" height="12" viewBox="0 0 13 12" fill="none" xmlns="http://www.w3.org/2000/svg">
<path d="M7.88643 0.461538C7.88643 0.295282 7.80693 0.141876 7.67831 0.059944C7.54969 -0.0219948 7.39182 -0.0197932 7.26505 0.065704L3.25891 2.76743H1.73107C1.05088 2.76743 0.5 3.386 0.5 4.15136V7.84615C0.5 8.6111 1.05049 9.23077 1.73107 9.23077H3.25884L7.26495 11.9342C7.39172 12.0198 7.5496 12.0221 7.67826 11.9401C7.80691 11.8581 7.88643 11.7047 7.88643 11.5385V0.461538Z" fill="white"/>
<path d="M11.3396 5.99651L12.4998 7.30057L11.9196 7.9535L10.759 6.649L9.59844 7.9535L9.01836 7.30057L10.1785 5.99651L9.01812 4.69222L9.59828 4.03929L10.759 5.344L11.9198 4.03929L12.5 4.69222L11.3396 5.99651Z" fill="white"/>
</svg>
