<svg width="14" height="14" viewBox="0 0 14 14" fill="none" xmlns="http://www.w3.org/2000/svg">
<g id="speaker-wave-2-svgrepo-com 1">
<path id="Vector" d="M7.58398 2.18433C7.58398 1.90931 7.50978 1.45843 7.09731 1.25079C6.65946 1.03035 6.25183 1.27954 6.04533 1.46507L2.88617 4.33833H1.75065C1.10632 4.33833 0.583984 4.86066 0.583984 5.50499L0.58399 8.53111C0.58399 9.1754 1.10632 9.69778 1.75066 9.69778H2.88816L6.04533 12.5353C6.25253 12.7214 6.65998 12.9693 7.09725 12.749C7.50914 12.5415 7.58398 12.0917 7.58398 11.816V2.18433Z" fill="white"/>
<path id="Vector_2" d="M10.1134 2.21437L9.97293 2.17518C9.66266 2.08859 9.34089 2.26995 9.25427 2.58026L9.17593 2.8612C9.0893 3.17151 9.27066 3.49326 9.58099 3.57985L9.72146 3.61904C11.0579 3.99197 12.105 5.33526 12.105 7.00007C12.105 8.66484 11.0579 10.0081 9.72146 10.3811L9.58099 10.4202C9.27066 10.5068 9.0893 10.8286 9.17593 11.1389L9.25427 11.4198C9.34089 11.7301 9.66266 11.9115 9.97293 11.8249L10.1134 11.7857C12.1316 11.2226 13.5633 9.26439 13.5633 7.00007C13.5633 4.7357 12.1316 2.77753 10.1134 2.21437Z" fill="white"/>
<path id="Vector_3" d="M9.54222 4.55142L9.40245 4.50964C9.09381 4.41736 8.76877 4.59277 8.67649 4.90144L8.59296 5.18089C8.50067 5.48955 8.67608 5.81458 8.98472 5.90686L9.12449 5.94862C9.43552 6.04166 9.77082 6.42369 9.77082 7.00002C9.77082 7.57641 9.43552 7.95844 9.12449 8.05142L8.98472 8.09319C8.67608 8.18547 8.50067 8.5105 8.59296 8.81915L8.67649 9.09862C8.76877 9.40726 9.09381 9.58267 9.40245 9.49039L9.54222 9.44862C10.573 9.14045 11.2292 8.1076 11.2292 7.00002C11.2292 5.89251 10.573 4.85959 9.54222 4.55142Z" fill="white"/>
</g>
</svg>
