<svg width="16" height="11" viewBox="0 0 16 11" fill="none" xmlns="http://www.w3.org/2000/svg">
<path id="Vector" d="M8.62432 10.2285L15.7444 2.65369C15.9092 2.47849 16 2.24462 16 1.99525C16 1.74588 15.9092 1.51201 15.7444 1.33682L15.2202 0.778985C14.8786 0.416 14.3234 0.416 13.9823 0.778985L8.00332 7.13973L2.01767 0.771927C1.85286 0.596731 1.63316 0.499999 1.39888 0.499999C1.16435 0.499999 0.944641 0.596731 0.779699 0.771926L0.255608 1.32976C0.0907955 1.50509 -5.41508e-08 1.73882 -6.50511e-08 1.98819C-7.59514e-08 2.23757 0.0907954 2.47144 0.255608 2.64663L7.38218 10.2285C7.54752 10.4041 7.76826 10.5006 8.00293 10.5C8.2385 10.5006 8.45912 10.4041 8.62432 10.2285Z" fill="#C9C9C9"/>
</svg>
