<svg width="71" height="71" viewBox="0 0 71 71" fill="none" xmlns="http://www.w3.org/2000/svg">
<g id="Icon1/human" clip-path="url(#clip0_514_2205)">
<path id="Vector" d="M33.15 32.2798C37.5128 32.2798 41.6969 33.976 44.7819 36.9954C47.8669 40.0147 49.6 44.1098 49.6 48.3798V67.6998H16.7V48.3798C16.7 44.1098 18.4331 40.0147 21.5181 36.9954C24.6031 33.976 28.7872 32.2798 33.15 32.2798ZM11.0675 41.9591C10.5439 43.6876 10.2347 45.4714 10.1463 47.2721L10.12 48.3798V67.6998H0.25V53.2098C0.249353 50.4328 1.29631 47.7533 3.19006 45.6853C5.0838 43.6174 7.69099 42.3065 10.5115 42.0042L11.0675 41.9591ZM55.2325 41.9591C58.1603 42.1338 60.9097 43.3951 62.9199 45.4858C64.9301 47.5765 66.0496 50.339 66.05 53.2098V67.6998H56.18V48.3798C56.18 46.1483 55.851 43.9942 55.2325 41.9591ZM11.765 22.6198C13.9464 22.6198 16.0385 23.4679 17.581 24.9776C19.1234 26.4873 19.99 28.5348 19.99 30.6698C19.99 32.8048 19.1234 34.8523 17.581 36.362C16.0385 37.8717 13.9464 38.7198 11.765 38.7198C9.5836 38.7198 7.49153 37.8717 5.94905 36.362C4.40656 34.8523 3.54 32.8048 3.54 30.6698C3.54 28.5348 4.40656 26.4873 5.94905 24.9776C7.49153 23.4679 9.5836 22.6198 11.765 22.6198ZM54.535 22.6198C56.7164 22.6198 58.8085 23.4679 60.351 24.9776C61.8934 26.4873 62.76 28.5348 62.76 30.6698C62.76 32.8048 61.8934 34.8523 60.351 36.362C58.8085 37.8717 56.7164 38.7198 54.535 38.7198C52.3536 38.7198 50.2615 37.8717 48.7191 36.362C47.1766 34.8523 46.31 32.8048 46.31 30.6698C46.31 28.5348 47.1766 26.4873 48.7191 24.9776C50.2615 23.4679 52.3536 22.6198 54.535 22.6198ZM33.15 3.2998C36.6403 3.2998 39.9875 4.6568 42.4555 7.07227C44.9235 9.48774 46.31 12.7638 46.31 16.1798C46.31 19.5958 44.9235 22.8719 42.4555 25.2873C39.9875 27.7028 36.6403 29.0598 33.15 29.0598C29.6598 29.0598 26.3125 27.7028 23.8445 25.2873C21.3765 22.8719 19.99 19.5958 19.99 16.1798C19.99 12.7638 21.3765 9.48774 23.8445 7.07227C26.3125 4.6568 29.6598 3.2998 33.15 3.2998Z" fill="#9C3131"/>
</g>
<defs>
<clipPath id="clip0_514_2205">
<rect width="70" height="70" fill="white" transform="translate(0.25 0.5)"/>
</clipPath>
</defs>
</svg>
