<svg width="70" height="71" viewBox="0 0 70 71" fill="none" xmlns="http://www.w3.org/2000/svg">
<g id="Icon1/stylus">
<g id="Vector">
<path d="M39.4435 2.6001H10.9565V6.98676H39.4435V2.6001Z" fill="#9C3131"/>
<path d="M45.1365 28.9157C40.1403 24.7484 37.2522 18.5763 37.2522 12.0665V9.1801H13.1478V12.0665C13.1478 18.5763 10.2597 24.7484 5.26351 28.9157L0 33.3068L24.1044 68.4001V44.1638C21.6041 43.6549 19.7217 41.444 19.7217 38.7901C19.7217 35.7611 22.1738 33.3068 25.2 33.3068C28.2262 33.3068 30.6783 35.7611 30.6783 38.7901C30.6783 41.4418 28.7959 43.6549 26.2957 44.1638V68.4001L50.4 33.3068L45.1365 28.9157Z" fill="#9C3131"/>
<path d="M39.4435 2.6001H10.9565V6.98676H39.4435V2.6001Z" fill="#9C3131"/>
<path d="M45.1365 28.9157C40.1403 24.7484 37.2522 18.5763 37.2522 12.0665V9.1801H13.1478V12.0665C13.1478 18.5763 10.2597 24.7484 5.26351 28.9157L0 33.3068L24.1044 68.4001V44.1638C21.6041 43.6549 19.7217 41.444 19.7217 38.7901C19.7217 35.7611 22.1738 33.3068 25.2 33.3068C28.2262 33.3068 30.6783 35.7611 30.6783 38.7901C30.6783 41.4418 28.7959 43.6549 26.2957 44.1638V68.4001L50.4 33.3068L45.1365 28.9157Z" fill="#9C3131"/>
</g>
</g>
</svg>
