<svg width="100" height="100" viewBox="0 0 100 100" fill="none" xmlns="http://www.w3.org/2000/svg">
<g id="icon7/connect">
<rect x="1.5" y="1.5" width="97" height="97" stroke="#9C3131" stroke-width="3"/>
<g id="24/7">
<path d="M21.1402 59.0006L21.0802 56.3306L27.4702 49.5206C29.1502 47.7806 30.2302 46.4006 30.2302 44.7506C30.2302 43.1606 29.0902 41.9606 27.5002 41.9606C26.0302 41.9606 24.8002 42.6506 23.9002 44.1506L20.9902 42.0806C22.1902 39.8906 24.3502 38.1806 27.8002 38.1806C31.2502 38.1806 34.3702 40.4606 34.3702 44.2706C34.3702 46.6106 33.6202 48.4406 30.9502 51.2006L27.1102 55.2206L27.1402 55.3106H34.5502V59.0006H21.1402Z" fill="white"/>
<path d="M45.0362 59.0006V55.6106H36.3362V53.0306L45.7862 38.3906H49.0562V52.1306H51.8162V55.6106H49.0562V59.0006H45.0362ZM40.7762 52.3106H45.3062V44.9906L40.7762 52.3106Z" fill="white"/>
<path d="M54.8813 62.3606L51.9413 61.0106L63.4013 35.3906L66.3113 36.7406L54.8813 62.3606Z" fill="white"/>
<path d="M67.0651 38.3906H79.9051V41.0606L72.7351 59.4506L68.6551 58.7006L75.4051 42.0806H67.0651V38.3906Z" fill="white"/>
</g>
</g>
</svg>
