<svg width="100" height="100" viewBox="0 0 100 100" fill="none" xmlns="http://www.w3.org/2000/svg">
<g id="icon7/direction">
<rect x="1.5" y="1.5" width="97" height="97" stroke="#9C3131" stroke-width="3"/>
<g id="Vector">
<path fill-rule="evenodd" clip-rule="evenodd" d="M49.5 21L40.6547 36.3022H44.7097V49.2013C46.5041 51.201 48.1071 53.3645 49.4977 55.6634C50.8946 53.369 52.4988 51.2075 54.2903 49.2059V36.3022H58.3453L49.5 21ZM38.6073 40.5784L21 42.1225L31.1255 56.6096L32.5562 53.5447C36.6243 56.7481 42.2656 63.0164 43.5475 73.7752C43.7989 71.1594 44.2537 68.5631 44.9753 66.0346C45.7551 63.2262 46.8495 60.5175 48.2044 57.9451C44.639 51.6267 39.9639 47.3682 36.6026 44.8744L38.6079 40.5784H38.6073Z" fill="white"/>
<path fill-rule="evenodd" clip-rule="evenodd" d="M60.3927 40.5784L62.3974 44.8744C56.267 49.4202 45.7625 59.8198 45.6058 77.9168L55.1846 78C55.3003 64.6187 61.8696 57.1465 66.4444 53.5447L67.8751 56.6096L78 42.1225L60.3927 40.5784Z" fill="white"/>
</g>
</g>
</svg>
