<svg width="100" height="100" viewBox="0 0 100 100" fill="none" xmlns="http://www.w3.org/2000/svg">
<g id="icon7/hands">
<rect x="1.5" y="1.5" width="97" height="97" stroke="#9C3131" stroke-width="3"/>
<path id="Vector" d="M67.0219 54.1834L67.6195 54.7673L69.6896 56.8167C70.0129 57.1138 70.2697 57.4748 70.4435 57.8762C70.5624 58.1585 70.6286 58.4599 70.6388 58.7656C70.6454 58.9944 70.5915 59.221 70.4825 59.4229C70.4118 59.5564 70.3253 59.681 70.2247 59.7942L69.3029 60.7067C69.0504 60.9994 68.6966 61.1883 68.3109 61.2365C68.0021 61.2558 67.6934 61.1986 67.4125 61.0702C67.1513 60.9501 66.9102 60.791 66.6977 60.5985C66.5532 60.4698 66.4113 60.3383 66.272 60.204L63.3504 57.2537C63.282 57.178 63.1989 57.1168 63.106 57.0737C63.0131 57.0306 62.9124 57.0066 62.8099 57.003C62.7074 56.9993 62.6053 57.0163 62.5095 57.0527C62.4138 57.0891 62.3265 57.1443 62.2528 57.215L62.124 57.3619C62.037 57.4466 61.9678 57.5474 61.9203 57.6586C61.8728 57.7698 61.848 57.8892 61.8473 58.0099C61.8466 58.1307 61.8699 58.2504 61.9161 58.3621C61.9622 58.4739 62.0302 58.5755 62.1161 58.6612L65.5924 62.0292C65.8765 62.2893 66.1084 62.6002 66.2759 62.9456C66.4101 63.2074 66.4847 63.4952 66.4946 63.7886C66.5 64.0173 66.4462 64.2436 66.3384 64.4459C66.2426 64.6178 66.1245 64.7764 65.9869 64.9177L64.8229 66.07C64.5781 66.3464 64.249 66.5364 63.8855 66.6114C63.5993 66.6526 63.3072 66.6193 63.0379 66.5147C62.7736 66.4121 62.5312 66.2613 62.3232 66.07C62.1503 65.9127 61.981 65.7515 61.8154 65.5867L58.2064 61.948C58.1449 61.8809 58.0703 61.827 57.9871 61.7896C57.9038 61.7521 57.8138 61.7318 57.7223 61.73C57.6309 61.7282 57.5401 61.7449 57.4554 61.779C57.3708 61.8132 57.294 61.8641 57.2299 61.9286L56.894 62.2651C56.7591 62.4034 56.6843 62.5886 56.6858 62.7809C56.6872 62.9732 56.7648 63.1573 56.9018 63.2936L60.2296 66.5186C60.5466 66.8144 60.813 67.1591 61.0186 67.5394C61.1601 67.802 61.2402 68.0927 61.2529 68.3901C61.26 68.6215 61.2062 68.8507 61.0967 69.0552C60.9996 69.2248 60.88 69.3808 60.7413 69.5192L59.8195 70.4356C58.9446 71.2039 57.9421 71.0273 56.812 69.9059L53.3592 66.565C53.2718 66.4775 53.1531 66.4276 53.0288 66.4262C52.9045 66.4247 52.7847 66.4718 52.6952 66.5572L52.2421 66.9207C52.1736 66.9861 52.1193 67.0648 52.0828 67.1519C52.0462 67.2389 52.0281 67.3325 52.0296 67.4268C52.031 67.521 52.052 67.614 52.0913 67.6999C52.1305 67.7858 52.1872 67.8628 52.2577 67.9261L54.5231 70.1882C54.8405 70.4671 55.0719 70.829 55.191 71.2322C55.2633 71.52 55.2673 71.8204 55.2028 72.11C55.1357 72.4042 54.9946 72.6769 54.7926 72.9027L53.8709 73.8152C53.6031 74.0866 53.2451 74.2528 52.8631 74.2831C52.5618 74.2955 52.2609 74.2509 51.9765 74.1517C51.6457 74.0237 51.3471 73.8258 51.1016 73.5716L32.373 55.0341C31.4526 54.1361 30.6352 53.1401 29.9357 52.0644C29.3396 51.1523 28.8545 50.1737 28.4905 49.1488C28.1815 48.2642 27.9872 47.3442 27.9125 46.4111C27.842 45.5902 27.8987 44.7635 28.0804 43.9595L24.7799 40.6921L21.4287 37.5677L34.6384 24.2852L41.5517 31.2648L38.3567 34.424L38.2864 34.5013L38.2396 34.5516C37.6011 35.2465 37.1215 36.0695 36.8335 36.9645C36.55 37.8497 36.4726 38.787 36.6069 39.706C36.8035 41.0132 37.4359 42.2178 38.4036 43.1282L39.3488 44.0601L39.4348 44.1413L39.4934 44.1954C40.2207 44.8385 41.0971 45.2938 42.0449 45.5212C42.9927 45.7485 43.9824 45.7407 44.9264 45.4985C46.0542 45.1998 47.0763 44.5975 47.8793 43.7585L52.1991 39.4779L53.7302 41.0014L53.7459 41.0285L67.0141 54.1679L67.0219 54.1834ZM72.2558 44.2457C72.2901 44.6962 72.2901 45.1486 72.2558 45.5991C72.1811 46.5189 71.9895 47.4258 71.6855 48.2981C71.3321 49.2997 70.8601 50.2563 70.2794 51.148C70.1416 51.3629 69.9984 51.5744 69.8498 51.7821L69.631 51.5733L53.5115 35.5917C53.3395 35.4208 53.1351 35.2851 52.91 35.1923C52.685 35.0996 52.4437 35.0517 52.2 35.0514C51.9562 35.051 51.7148 35.0982 51.4894 35.1902C51.2641 35.2823 51.0593 35.4174 50.8868 35.5879L45.2584 41.1638C44.9268 41.5292 44.4996 41.7968 44.0242 41.9372C43.6759 42.0308 43.3099 42.0388 42.9579 41.9604L42.9383 41.9565C42.567 41.8688 42.2243 41.6892 41.9423 41.4345L41.0284 40.5335C40.641 40.1853 40.3802 39.7206 40.2862 39.2111C40.2261 38.835 40.2528 38.4503 40.3644 38.0858L40.3761 38.0588C40.5066 37.6651 40.7211 37.3038 41.0049 36.9993L41.0166 36.9877L47.3442 30.7234C48.0092 30.0665 48.8045 29.553 49.6799 29.2154C50.568 28.8724 51.4977 28.6462 52.4452 28.5425C53.0884 28.4703 53.7352 28.4342 54.3825 28.4343C54.7108 28.4344 55.039 28.4434 55.3668 28.4613C57.1066 28.5557 58.8367 28.7806 60.5421 29.1341L65.4205 24.3084L78.5716 37.3279L72.3612 43.4723C72.2717 43.7199 72.2371 43.9837 72.2597 44.2457H72.2558Z" fill="white"/>
</g>
</svg>
