<svg width="24" height="20" viewBox="0 0 24 20" fill="none" xmlns="http://www.w3.org/2000/svg">
<g id="Vector">
<path d="M2.21676 0.0463267C2.09565 0.072448 1.8682 0.15081 1.71459 0.218723C1.47828 0.323207 1.38375 0.385897 1.16221 0.581804C0.928848 0.788157 0.875678 0.850847 0.745705 1.09116C0.476897 1.57439 0.500528 0.89264 0.500528 8.37102V15.0005L2.19313 13.5064L3.88278 12.0097L15.5508 11.9966L15.7753 11.9391C16.4252 11.7746 16.9362 11.4063 17.2345 10.8812C17.4886 10.432 17.4709 10.8029 17.4709 5.97575C17.4709 1.15646 17.4915 1.56133 17.2345 1.10422C16.9628 0.620985 16.5197 0.27619 15.9289 0.0881204L15.669 0.00714564L9.05216 0.00192036C2.72779 -0.00330321 2.42649 -0.000690577 2.21676 0.0463267Z" fill="#9C3131"/>
<path d="M18.6081 7.60046C18.6081 9.74236 18.5993 10.2648 18.5668 10.4685C18.4545 11.1242 18.1178 11.7093 17.5949 12.1585C17.1312 12.5582 16.6349 12.7907 15.9348 12.9422C15.7458 12.984 15.3352 12.9866 10.9368 12.9944L6.14253 13.0049V14.0027C6.14253 15.1154 6.16321 15.3609 6.28432 15.6639C6.39953 15.9487 6.53245 16.1367 6.78944 16.377C7.04939 16.62 7.34774 16.7924 7.70221 16.9047L7.9592 16.9857L19.7513 17.0118L23.1276 20L23.1129 6.58959L23.0302 6.38062C22.7259 5.61789 22.0051 5.09809 21.119 5.00928C20.9801 4.99622 20.3598 4.98316 19.7395 4.98316H18.6081V7.60046Z" fill="#9C3131"/>
</g>
</svg>
