<svg width="55" height="14" viewBox="0 0 55 14" fill="none" xmlns="http://www.w3.org/2000/svg">
<g id="Vector">
<path d="M31.7526 0.10537C28.5294 0.821367 26.5134 3.23932 26.3376 6.59629C26.1618 9.95326 27.8965 12.5708 30.9907 13.6506C31.9753 13.991 34.2491 14.0262 35.4681 13.721C36.4526 13.4746 37.6482 12.8994 38.2576 12.383L38.7265 11.9721V6.12678H33.9209V8.59169H35.9252L35.8549 10.5167L35.3274 10.7866C34.1436 11.397 32.3855 11.3735 31.3541 10.7279C30.182 10.0119 29.6546 8.70907 29.7132 6.66672C29.7601 5.52816 29.8069 5.28167 30.0882 4.69479C30.4985 3.87315 31.2838 3.15716 32.0691 2.88719C33.3818 2.4529 35.2454 2.91067 36.019 3.86142L36.3706 4.29571L37.402 3.30975C37.9646 2.75808 38.4452 2.28857 38.4686 2.24162C38.5389 2.08903 37.2731 1.06786 36.5816 0.727465C35.4798 0.199271 34.6242 0.0232063 33.2177 0.034944C32.5379 0.0466816 31.8815 0.0701569 31.7526 0.10537Z" fill="#9C3131"/>
<path d="M46.5796 0.0703573C44.0128 0.492913 41.8444 2.60569 41.2936 5.21145C41.0943 6.18567 41.1177 7.99327 41.3522 8.90881C42.1726 12.1601 45.0794 14.1555 48.6073 13.909C51.8071 13.686 54.2216 11.6672 54.8545 8.67405C55.1124 7.45334 55.0186 5.634 54.6435 4.43676C53.952 2.28877 52.2056 0.692453 49.9669 0.164258C49.2754 -6.86022e-05 47.3063 -0.0587569 46.5796 0.0703573ZM49.8146 3.07519C50.1427 3.23952 50.5647 3.55644 50.7405 3.76772C52.0415 5.31709 51.9946 8.77969 50.6467 10.1765C49.1699 11.7258 46.2163 11.4794 45.1497 9.73044C44.4347 8.56841 44.2706 6.31479 44.7746 4.85932C45.0559 4.06116 46.0053 3.12215 46.7672 2.87565C47.6462 2.59395 49.0644 2.68785 49.8146 3.07519Z" fill="#9C3131"/>
<path d="M0 13.7828H3.28182V8.14875H7.55991L7.48958 13.7828H10.7831V0.284519H7.61851V5.44909H3.28182L3.2701 4.59224C3.25838 3.47716 3.19977 1.01225 3.17633 0.601436L3.16461 0.284519H0V13.7828Z" fill="#9C3131"/>
<path d="M13.2154 5.19086C13.2154 10.4845 13.2623 10.954 13.8484 11.8931C14.2117 12.4682 14.9736 13.1138 15.6534 13.4307C17.2474 14.1819 19.7908 14.1936 21.4669 13.4424C22.217 13.1138 23.1195 12.2217 23.4946 11.447L23.8228 10.7897L23.8931 0.284521H20.7285L20.6933 5.12043C20.6581 9.92113 20.6581 9.96808 20.3886 10.3906C20.0369 10.9775 19.4275 11.2475 18.525 11.2357C17.5873 11.224 17.0013 10.9306 16.6848 10.3085C16.4504 9.87418 16.4387 9.63943 16.4035 5.06174L16.3683 0.284521H13.2154V5.19086Z" fill="#9C3131"/>
</g>
</svg>
