<svg width="25" height="45" viewBox="0 0 25 45" fill="none" xmlns="http://www.w3.org/2000/svg">
<path id="Vector" d="M0.678784 24.2559L19.6158 44.2811C20.0538 44.7446 20.6384 45 21.2619 45C21.8853 45 22.47 44.7446 22.908 44.2811L24.3025 42.8067C25.21 41.846 25.21 40.2846 24.3025 39.3253L8.40068 22.5093L24.3202 5.67471C24.7582 5.21118 25 4.59325 25 3.93436C25 3.27473 24.7582 2.65681 24.3202 2.19291L22.9256 0.718895C22.4873 0.255364 21.9029 2.70754e-07 21.2795 3.25255e-07C20.6561 3.79757e-07 20.0714 0.255364 19.6334 0.718895L0.678783 20.7624C0.239755 21.2274 -0.00138104 21.8482 3.75575e-06 22.5082C-0.00138092 23.1708 0.239756 23.7913 0.678784 24.2559Z" fill="white"/>
</svg>
