<svg width="248" height="60" viewBox="0 0 248 60" fill="none" xmlns="http://www.w3.org/2000/svg">
<g id="road">
<g id="Vector" filter="url(#filter0_d_513_6189)">
<path d="M14.9502 32.316C15.9614 32.316 16.7815 31.7975 16.7815 31.1582V28.8414C16.7815 28.2021 15.9614 27.6836 14.9502 27.6836C13.9382 27.6836 13.1182 28.2021 13.1182 28.8414V31.1582C13.1182 31.7975 13.9382 32.316 14.9502 32.316Z" fill='#8D8D8D'/>
</g>
<g id="Vector_2" filter="url(#filter1_d_513_6189)">
<path d="M22.2766 32.3162V27.6838C22.2766 27.0439 21.4565 26.5254 20.4445 26.5254C19.4333 26.5254 18.6133 27.0439 18.6133 27.6838V32.3162C18.6133 32.9561 19.4333 33.4745 20.4445 33.4745C21.4565 33.4745 22.2766 32.9561 22.2766 32.3162Z" fill='#8D8D8D'/>
</g>
<g id="Vector_3" filter="url(#filter2_d_513_6189)">
<path d="M44.257 32.3162V27.6838C44.257 27.0439 43.437 26.5254 42.4258 26.5254C41.4138 26.5254 40.5938 27.0439 40.5938 27.6838V32.3162C40.5938 32.9561 41.4138 33.4745 42.4258 33.4745C43.437 33.4745 44.257 32.9561 44.257 32.3162Z" fill='#8D8D8D'/>
</g>
<g id="Vector_4" filter="url(#filter3_d_513_6189)">
<path d="M29.6037 34.6322V25.3674C29.6037 24.7275 28.7837 24.209 27.7717 24.209C26.7605 24.209 25.9404 24.7275 25.9404 25.3674V34.6322C25.9404 35.2721 26.7605 35.7906 27.7717 35.7906C28.7837 35.7906 29.6037 35.2721 29.6037 34.6322Z" fill='#8D8D8D'/>
</g>
<g id="Vector_5" filter="url(#filter4_d_513_6189)">
<path d="M36.9299 34.6322V25.3674C36.9299 24.7275 36.1099 24.209 35.0978 24.209C34.0866 24.209 33.2666 24.7275 33.2666 25.3674V34.6322C33.2666 35.2721 34.0866 35.7906 35.0978 35.7906C36.1099 35.7906 36.9299 35.2721 36.9299 34.6322Z" fill='#8D8D8D'/>
</g>
<g id="Vector_6" filter="url(#filter5_d_513_6189)">
<path d="M51.5822 36.9482V23.0509C51.5822 22.4111 50.7622 21.8926 49.751 21.8926C48.739 21.8926 47.9189 22.4111 47.9189 23.0509V36.9482C47.9189 37.5881 48.739 38.1066 49.751 38.1066C50.7622 38.1066 51.5822 37.5881 51.5822 36.9482Z" fill='#8D8D8D'/>
</g>
<g id="Vector_7" filter="url(#filter6_d_513_6189)">
<path d="M58.9094 39.2647V20.735C58.9094 20.0951 58.0894 19.5767 57.0782 19.5767C56.0661 19.5767 55.2461 20.0951 55.2461 20.735V39.2647C55.2461 39.9046 56.0661 40.4231 57.0782 40.4231C58.0894 40.4231 58.9094 39.9046 58.9094 39.2647Z" fill='#8D8D8D'/>
</g>
<g id="Vector_8" filter="url(#filter7_d_513_6189)">
<path d="M66.2365 46.2132V13.7863C66.2365 13.1464 65.4165 12.6279 64.4053 12.6279C63.3933 12.6279 62.5732 13.1464 62.5732 13.7863V46.2132C62.5732 46.8531 63.3933 47.3716 64.4053 47.3716C65.4165 47.3716 66.2365 46.8531 66.2365 46.2132Z" fill='#8D8D8D'/>
</g>
<g id="Vector_9" filter="url(#filter8_d_513_6189)">
<path d="M121.186 27.6836C120.175 27.6836 119.354 28.2021 119.354 28.8414V31.1582C119.354 31.7975 120.175 32.316 121.186 32.316C122.198 32.316 123.018 31.7975 123.018 31.1582V28.8414C123.018 28.2021 122.198 27.6836 121.186 27.6836Z" fill='#8D8D8D'/>
</g>
<g id="Vector_10" filter="url(#filter9_d_513_6189)">
<path d="M117.524 32.3162V27.6838C117.524 27.0439 116.704 26.5254 115.692 26.5254C114.68 26.5254 113.86 27.0439 113.86 27.6838V32.3162C113.86 32.9561 114.68 33.4745 115.692 33.4745C116.704 33.4745 117.524 32.9561 117.524 32.3162Z" fill='#8D8D8D'/>
</g>
<g id="Vector_11" filter="url(#filter10_d_513_6189)">
<path d="M95.5432 32.3162V27.6838C95.5432 27.0439 94.7231 26.5254 93.7111 26.5254C92.6999 26.5254 91.8799 27.0439 91.8799 27.6838V32.3162C91.8799 32.9561 92.6999 33.4745 93.7111 33.4745C94.7231 33.4745 95.5432 32.9561 95.5432 32.3162Z" fill='#8D8D8D'/>
</g>
<g id="Vector_12" filter="url(#filter11_d_513_6189)">
<path d="M110.196 34.6322V25.3674C110.196 24.7275 109.376 24.209 108.365 24.209C107.353 24.209 106.533 24.7275 106.533 25.3674V34.6322C106.533 35.2721 107.353 35.7906 108.365 35.7906C109.376 35.7906 110.196 35.2721 110.196 34.6322Z" fill='#8D8D8D'/>
</g>
<g id="Vector_13" filter="url(#filter12_d_513_6189)">
<path d="M102.87 34.6322V25.3674C102.87 24.7275 102.05 24.209 101.039 24.209C100.027 24.209 99.207 24.7275 99.207 25.3674V34.6322C99.207 35.2721 100.027 35.7906 101.039 35.7906C102.05 35.7906 102.87 35.2721 102.87 34.6322Z" fill='#8D8D8D'/>
</g>
<g id="Vector_14" filter="url(#filter13_d_513_6189)">
<path d="M88.217 36.9482V23.0509C88.217 22.4111 87.397 21.8926 86.3849 21.8926C85.3737 21.8926 84.5537 22.4111 84.5537 23.0509V36.9482C84.5537 37.5881 85.3737 38.1066 86.3849 38.1066C87.397 38.1066 88.217 37.5881 88.217 36.9482Z" fill='#8D8D8D'/>
</g>
<g id="Vector_15" filter="url(#filter14_d_513_6189)">
<path d="M80.8908 39.2647V20.735C80.8908 20.0951 80.0708 19.5767 79.0588 19.5767C78.0476 19.5767 77.2275 20.0951 77.2275 20.735V39.2647C77.2275 39.9046 78.0476 40.4231 79.0588 40.4231C80.0708 40.4231 80.8908 39.9046 80.8908 39.2647Z" fill='#8D8D8D'/>
</g>
<g id="Vector_16" filter="url(#filter15_d_513_6189)">
<path d="M73.5637 46.2132V13.7863C73.5637 13.1464 72.7437 12.6279 71.7316 12.6279C70.7204 12.6279 69.9004 13.1464 69.9004 13.7863V46.2132C69.9004 46.8531 70.7204 47.3716 71.7316 47.3716C72.7437 47.3716 73.5637 46.8531 73.5637 46.2132Z" fill='#8D8D8D'/>
</g>
<g id="Vector_17" filter="url(#filter16_d_513_6189)">
<path d="M126.813 32.316C127.824 32.316 128.644 31.7975 128.644 31.1582V28.8414C128.644 28.2021 127.824 27.6836 126.813 27.6836C125.8 27.6836 124.98 28.2021 124.98 28.8414V31.1582C124.98 31.7975 125.8 32.316 126.813 32.316Z" fill='#8D8D8D'/>
</g>
<g id="Vector_18" filter="url(#filter17_d_513_6189)">
<path d="M134.139 32.3162V27.6838C134.139 27.0439 133.319 26.5254 132.307 26.5254C131.296 26.5254 130.476 27.0439 130.476 27.6838V32.3162C130.476 32.9561 131.296 33.4745 132.307 33.4745C133.319 33.4745 134.139 32.9561 134.139 32.3162Z" fill='#8D8D8D'/>
</g>
<g id="Vector_19" filter="url(#filter18_d_513_6189)">
<path d="M156.119 32.3162V27.6838C156.119 27.0439 155.299 26.5254 154.288 26.5254C153.276 26.5254 152.456 27.0439 152.456 27.6838V32.3162C152.456 32.9561 153.276 33.4745 154.288 33.4745C155.299 33.4745 156.119 32.9561 156.119 32.3162Z" fill="#8D8D8D"/>
</g>
<g id="Vector_20" filter="url(#filter19_d_513_6189)">
<path d="M141.467 34.6322V25.3674C141.467 24.7275 140.647 24.209 139.635 24.209C138.624 24.209 137.804 24.7275 137.804 25.3674V34.6322C137.804 35.2721 138.624 35.7906 139.635 35.7906C140.647 35.7906 141.467 35.2721 141.467 34.6322Z" fill='#8D8D8D'/>
</g>
<g id="Vector_21" filter="url(#filter20_d_513_6189)">
<path d="M148.792 34.6322V25.3674C148.792 24.7275 147.972 24.209 146.96 24.209C145.949 24.209 145.129 24.7275 145.129 25.3674V34.6322C145.129 35.2721 145.949 35.7906 146.96 35.7906C147.972 35.7906 148.792 35.2721 148.792 34.6322Z" fill='#8D8D8D'/>
</g>
<g id="Vector_22" filter="url(#filter21_d_513_6189)">
<path d="M163.447 36.9482V23.0509C163.447 22.4111 162.627 21.8926 161.616 21.8926C160.604 21.8926 159.784 22.4111 159.784 23.0509V36.9482C159.784 37.5881 160.604 38.1066 161.616 38.1066C162.627 38.1066 163.447 37.5881 163.447 36.9482Z" fill="#8D8D8D"/>
</g>
<g id="Vector_23" filter="url(#filter22_d_513_6189)">
<path d="M170.773 39.2647V20.735C170.773 20.0951 169.953 19.5767 168.941 19.5767C167.929 19.5767 167.109 20.0951 167.109 20.735V39.2647C167.109 39.9046 167.929 40.4231 168.941 40.4231C169.953 40.4231 170.773 39.9046 170.773 39.2647Z" fill="#8D8D8D"/>
</g>
<g id="Vector_24" filter="url(#filter23_d_513_6189)">
<path d="M178.099 46.2132V13.7863C178.099 13.1464 177.279 12.6279 176.268 12.6279C175.256 12.6279 174.436 13.1464 174.436 13.7863V46.2132C174.436 46.8531 175.256 47.3716 176.268 47.3716C177.279 47.3716 178.099 46.8531 178.099 46.2132Z" fill="#8D8D8D"/>
</g>
<g id="Vector_25" filter="url(#filter24_d_513_6189)">
<path d="M233.05 27.6836C232.039 27.6836 231.219 28.2021 231.219 28.8414V31.1582C231.219 31.7975 232.039 32.316 233.05 32.316C234.062 32.316 234.882 31.7975 234.882 31.1582V28.8414C234.882 28.2021 234.062 27.6836 233.05 27.6836Z" fill="#8D8D8D"/>
</g>
<g id="Vector_26" filter="url(#filter25_d_513_6189)">
<path d="M229.387 32.3162V27.6838C229.387 27.0439 228.567 26.5254 227.556 26.5254C226.544 26.5254 225.724 27.0439 225.724 27.6838V32.3162C225.724 32.9561 226.544 33.4745 227.556 33.4745C228.567 33.4745 229.387 32.9561 229.387 32.3162Z" fill="#8D8D8D"/>
</g>
<g id="Vector_27" filter="url(#filter26_d_513_6189)">
<path d="M207.406 32.3162V27.6838C207.406 27.0439 206.586 26.5254 205.574 26.5254C204.563 26.5254 203.743 27.0439 203.743 27.6838V32.3162C203.743 32.9561 204.563 33.4745 205.574 33.4745C206.586 33.4745 207.406 32.9561 207.406 32.3162Z" fill="#8D8D8D"/>
</g>
<g id="Vector_28" filter="url(#filter27_d_513_6189)">
<path d="M222.059 34.6322V25.3674C222.059 24.7275 221.239 24.209 220.228 24.209C219.216 24.209 218.396 24.7275 218.396 25.3674V34.6322C218.396 35.2721 219.216 35.7906 220.228 35.7906C221.239 35.7906 222.059 35.2721 222.059 34.6322Z" fill="#8D8D8D"/>
</g>
<g id="Vector_29" filter="url(#filter28_d_513_6189)">
<path d="M214.734 34.6322V25.3674C214.734 24.7275 213.914 24.209 212.902 24.209C211.89 24.209 211.07 24.7275 211.07 25.3674V34.6322C211.07 35.2721 211.89 35.7906 212.902 35.7906C213.914 35.7906 214.734 35.2721 214.734 34.6322Z" fill="#8D8D8D"/>
</g>
<g id="Vector_30" filter="url(#filter29_d_513_6189)">
<path d="M200.079 36.9482V23.0509C200.079 22.4111 199.259 21.8926 198.247 21.8926C197.236 21.8926 196.416 22.4111 196.416 23.0509V36.9482C196.416 37.5881 197.236 38.1066 198.247 38.1066C199.259 38.1066 200.079 37.5881 200.079 36.9482Z" fill="#8D8D8D"/>
</g>
<g id="Vector_31" filter="url(#filter30_d_513_6189)">
<path d="M192.753 39.2647V20.735C192.753 20.0951 191.933 19.5767 190.921 19.5767C189.91 19.5767 189.09 20.0951 189.09 20.735V39.2647C189.09 39.9046 189.91 40.4231 190.921 40.4231C191.933 40.4231 192.753 39.9046 192.753 39.2647Z" fill="#8D8D8D"/>
</g>
<g id="Vector_32" filter="url(#filter31_d_513_6189)">
<path d="M185.427 46.2132V13.7863C185.427 13.1464 184.607 12.6279 183.595 12.6279C182.584 12.6279 181.764 13.1464 181.764 13.7863V46.2132C181.764 46.8531 182.584 47.3716 183.595 47.3716C184.607 47.3716 185.427 46.8531 185.427 46.2132Z" fill="#8D8D8D"/>
</g>
</g>
<defs>
<filter id="filter0_d_513_6189" x="0.518164" y="15.0836" width="28.8631" height="29.8323" filterUnits="userSpaceOnUse" color-interpolation-filters="sRGB">
<feFlood flood-opacity="0" result="BackgroundImageFix"/>
<feColorMatrix in="SourceAlpha" type="matrix" values="0 0 0 0 0 0 0 0 0 0 0 0 0 0 0 0 0 0 127 0" result="hardAlpha"/>
<feOffset/>
<feGaussianBlur stdDeviation="6.3"/>
<feComposite in2="hardAlpha" operator="out"/>
<feColorMatrix type="matrix" values="0 0 0 0 0 0 0 0 0 0 0 0 0 0 0 0 0 0 0.6 0"/>
<feBlend mode="normal" in2="BackgroundImageFix" result="effect1_dropShadow_513_6189"/>
<feBlend mode="normal" in="SourceGraphic" in2="effect1_dropShadow_513_6189" result="shape"/>
</filter>
<filter id="filter1_d_513_6189" x="6.01328" y="13.9254" width="28.8631" height="32.1492" filterUnits="userSpaceOnUse" color-interpolation-filters="sRGB">
<feFlood flood-opacity="0" result="BackgroundImageFix"/>
<feColorMatrix in="SourceAlpha" type="matrix" values="0 0 0 0 0 0 0 0 0 0 0 0 0 0 0 0 0 0 127 0" result="hardAlpha"/>
<feOffset/>
<feGaussianBlur stdDeviation="6.3"/>
<feComposite in2="hardAlpha" operator="out"/>
<feColorMatrix type="matrix" values="0 0 0 0 0 0 0 0 0 0 0 0 0 0 0 0 0 0 0.6 0"/>
<feBlend mode="normal" in2="BackgroundImageFix" result="effect1_dropShadow_513_6189"/>
<feBlend mode="normal" in="SourceGraphic" in2="effect1_dropShadow_513_6189" result="shape"/>
</filter>
<filter id="filter2_d_513_6189" x="27.9937" y="13.9254" width="28.8631" height="32.1492" filterUnits="userSpaceOnUse" color-interpolation-filters="sRGB">
<feFlood flood-opacity="0" result="BackgroundImageFix"/>
<feColorMatrix in="SourceAlpha" type="matrix" values="0 0 0 0 0 0 0 0 0 0 0 0 0 0 0 0 0 0 127 0" result="hardAlpha"/>
<feOffset/>
<feGaussianBlur stdDeviation="6.3"/>
<feComposite in2="hardAlpha" operator="out"/>
<feColorMatrix type="matrix" values="0 0 0 0 0 0 0 0 0 0 0 0 0 0 0 0 0 0 0.6 0"/>
<feBlend mode="normal" in2="BackgroundImageFix" result="effect1_dropShadow_513_6189"/>
<feBlend mode="normal" in="SourceGraphic" in2="effect1_dropShadow_513_6189" result="shape"/>
</filter>
<filter id="filter3_d_513_6189" x="13.3404" y="11.609" width="28.8631" height="36.7815" filterUnits="userSpaceOnUse" color-interpolation-filters="sRGB">
<feFlood flood-opacity="0" result="BackgroundImageFix"/>
<feColorMatrix in="SourceAlpha" type="matrix" values="0 0 0 0 0 0 0 0 0 0 0 0 0 0 0 0 0 0 127 0" result="hardAlpha"/>
<feOffset/>
<feGaussianBlur stdDeviation="6.3"/>
<feComposite in2="hardAlpha" operator="out"/>
<feColorMatrix type="matrix" values="0 0 0 0 0 0 0 0 0 0 0 0 0 0 0 0 0 0 0.6 0"/>
<feBlend mode="normal" in2="BackgroundImageFix" result="effect1_dropShadow_513_6189"/>
<feBlend mode="normal" in="SourceGraphic" in2="effect1_dropShadow_513_6189" result="shape"/>
</filter>
<filter id="filter4_d_513_6189" x="20.6666" y="11.609" width="28.8631" height="36.7815" filterUnits="userSpaceOnUse" color-interpolation-filters="sRGB">
<feFlood flood-opacity="0" result="BackgroundImageFix"/>
<feColorMatrix in="SourceAlpha" type="matrix" values="0 0 0 0 0 0 0 0 0 0 0 0 0 0 0 0 0 0 127 0" result="hardAlpha"/>
<feOffset/>
<feGaussianBlur stdDeviation="6.3"/>
<feComposite in2="hardAlpha" operator="out"/>
<feColorMatrix type="matrix" values="0 0 0 0 0 0 0 0 0 0 0 0 0 0 0 0 0 0 0.6 0"/>
<feBlend mode="normal" in2="BackgroundImageFix" result="effect1_dropShadow_513_6189"/>
<feBlend mode="normal" in="SourceGraphic" in2="effect1_dropShadow_513_6189" result="shape"/>
</filter>
<filter id="filter5_d_513_6189" x="35.3189" y="9.29258" width="28.8631" height="41.4139" filterUnits="userSpaceOnUse" color-interpolation-filters="sRGB">
<feFlood flood-opacity="0" result="BackgroundImageFix"/>
<feColorMatrix in="SourceAlpha" type="matrix" values="0 0 0 0 0 0 0 0 0 0 0 0 0 0 0 0 0 0 127 0" result="hardAlpha"/>
<feOffset/>
<feGaussianBlur stdDeviation="6.3"/>
<feComposite in2="hardAlpha" operator="out"/>
<feColorMatrix type="matrix" values="0 0 0 0 0 0 0 0 0 0 0 0 0 0 0 0 0 0 0.6 0"/>
<feBlend mode="normal" in2="BackgroundImageFix" result="effect1_dropShadow_513_6189"/>
<feBlend mode="normal" in="SourceGraphic" in2="effect1_dropShadow_513_6189" result="shape"/>
</filter>
<filter id="filter6_d_513_6189" x="42.6461" y="6.97666" width="28.8631" height="46.0462" filterUnits="userSpaceOnUse" color-interpolation-filters="sRGB">
<feFlood flood-opacity="0" result="BackgroundImageFix"/>
<feColorMatrix in="SourceAlpha" type="matrix" values="0 0 0 0 0 0 0 0 0 0 0 0 0 0 0 0 0 0 127 0" result="hardAlpha"/>
<feOffset/>
<feGaussianBlur stdDeviation="6.3"/>
<feComposite in2="hardAlpha" operator="out"/>
<feColorMatrix type="matrix" values="0 0 0 0 0 0 0 0 0 0 0 0 0 0 0 0 0 0 0.6 0"/>
<feBlend mode="normal" in2="BackgroundImageFix" result="effect1_dropShadow_513_6189"/>
<feBlend mode="normal" in="SourceGraphic" in2="effect1_dropShadow_513_6189" result="shape"/>
</filter>
<filter id="filter7_d_513_6189" x="49.9732" y="0.0279293" width="28.8631" height="59.9437" filterUnits="userSpaceOnUse" color-interpolation-filters="sRGB">
<feFlood flood-opacity="0" result="BackgroundImageFix"/>
<feColorMatrix in="SourceAlpha" type="matrix" values="0 0 0 0 0 0 0 0 0 0 0 0 0 0 0 0 0 0 127 0" result="hardAlpha"/>
<feOffset/>
<feGaussianBlur stdDeviation="6.3"/>
<feComposite in2="hardAlpha" operator="out"/>
<feColorMatrix type="matrix" values="0 0 0 0 0 0 0 0 0 0 0 0 0 0 0 0 0 0 0.6 0"/>
<feBlend mode="normal" in2="BackgroundImageFix" result="effect1_dropShadow_513_6189"/>
<feBlend mode="normal" in="SourceGraphic" in2="effect1_dropShadow_513_6189" result="shape"/>
</filter>
<filter id="filter8_d_513_6189" x="106.754" y="15.0836" width="28.8631" height="29.8323" filterUnits="userSpaceOnUse" color-interpolation-filters="sRGB">
<feFlood flood-opacity="0" result="BackgroundImageFix"/>
<feColorMatrix in="SourceAlpha" type="matrix" values="0 0 0 0 0 0 0 0 0 0 0 0 0 0 0 0 0 0 127 0" result="hardAlpha"/>
<feOffset/>
<feGaussianBlur stdDeviation="6.3"/>
<feComposite in2="hardAlpha" operator="out"/>
<feColorMatrix type="matrix" values="0 0 0 0 0 0 0 0 0 0 0 0 0 0 0 0 0 0 0.6 0"/>
<feBlend mode="normal" in2="BackgroundImageFix" result="effect1_dropShadow_513_6189"/>
<feBlend mode="normal" in="SourceGraphic" in2="effect1_dropShadow_513_6189" result="shape"/>
</filter>
<filter id="filter9_d_513_6189" x="101.26" y="13.9254" width="28.8631" height="32.1492" filterUnits="userSpaceOnUse" color-interpolation-filters="sRGB">
<feFlood flood-opacity="0" result="BackgroundImageFix"/>
<feColorMatrix in="SourceAlpha" type="matrix" values="0 0 0 0 0 0 0 0 0 0 0 0 0 0 0 0 0 0 127 0" result="hardAlpha"/>
<feOffset/>
<feGaussianBlur stdDeviation="6.3"/>
<feComposite in2="hardAlpha" operator="out"/>
<feColorMatrix type="matrix" values="0 0 0 0 0 0 0 0 0 0 0 0 0 0 0 0 0 0 0.6 0"/>
<feBlend mode="normal" in2="BackgroundImageFix" result="effect1_dropShadow_513_6189"/>
<feBlend mode="normal" in="SourceGraphic" in2="effect1_dropShadow_513_6189" result="shape"/>
</filter>
<filter id="filter10_d_513_6189" x="79.2799" y="13.9254" width="28.8631" height="32.1492" filterUnits="userSpaceOnUse" color-interpolation-filters="sRGB">
<feFlood flood-opacity="0" result="BackgroundImageFix"/>
<feColorMatrix in="SourceAlpha" type="matrix" values="0 0 0 0 0 0 0 0 0 0 0 0 0 0 0 0 0 0 127 0" result="hardAlpha"/>
<feOffset/>
<feGaussianBlur stdDeviation="6.3"/>
<feComposite in2="hardAlpha" operator="out"/>
<feColorMatrix type="matrix" values="0 0 0 0 0 0 0 0 0 0 0 0 0 0 0 0 0 0 0.6 0"/>
<feBlend mode="normal" in2="BackgroundImageFix" result="effect1_dropShadow_513_6189"/>
<feBlend mode="normal" in="SourceGraphic" in2="effect1_dropShadow_513_6189" result="shape"/>
</filter>
<filter id="filter11_d_513_6189" x="93.9332" y="11.609" width="28.8631" height="36.7815" filterUnits="userSpaceOnUse" color-interpolation-filters="sRGB">
<feFlood flood-opacity="0" result="BackgroundImageFix"/>
<feColorMatrix in="SourceAlpha" type="matrix" values="0 0 0 0 0 0 0 0 0 0 0 0 0 0 0 0 0 0 127 0" result="hardAlpha"/>
<feOffset/>
<feGaussianBlur stdDeviation="6.3"/>
<feComposite in2="hardAlpha" operator="out"/>
<feColorMatrix type="matrix" values="0 0 0 0 0 0 0 0 0 0 0 0 0 0 0 0 0 0 0.6 0"/>
<feBlend mode="normal" in2="BackgroundImageFix" result="effect1_dropShadow_513_6189"/>
<feBlend mode="normal" in="SourceGraphic" in2="effect1_dropShadow_513_6189" result="shape"/>
</filter>
<filter id="filter12_d_513_6189" x="86.607" y="11.609" width="28.8631" height="36.7815" filterUnits="userSpaceOnUse" color-interpolation-filters="sRGB">
<feFlood flood-opacity="0" result="BackgroundImageFix"/>
<feColorMatrix in="SourceAlpha" type="matrix" values="0 0 0 0 0 0 0 0 0 0 0 0 0 0 0 0 0 0 127 0" result="hardAlpha"/>
<feOffset/>
<feGaussianBlur stdDeviation="6.3"/>
<feComposite in2="hardAlpha" operator="out"/>
<feColorMatrix type="matrix" values="0 0 0 0 0 0 0 0 0 0 0 0 0 0 0 0 0 0 0.6 0"/>
<feBlend mode="normal" in2="BackgroundImageFix" result="effect1_dropShadow_513_6189"/>
<feBlend mode="normal" in="SourceGraphic" in2="effect1_dropShadow_513_6189" result="shape"/>
</filter>
<filter id="filter13_d_513_6189" x="71.9537" y="9.29258" width="28.8631" height="41.4139" filterUnits="userSpaceOnUse" color-interpolation-filters="sRGB">
<feFlood flood-opacity="0" result="BackgroundImageFix"/>
<feColorMatrix in="SourceAlpha" type="matrix" values="0 0 0 0 0 0 0 0 0 0 0 0 0 0 0 0 0 0 127 0" result="hardAlpha"/>
<feOffset/>
<feGaussianBlur stdDeviation="6.3"/>
<feComposite in2="hardAlpha" operator="out"/>
<feColorMatrix type="matrix" values="0 0 0 0 0 0 0 0 0 0 0 0 0 0 0 0 0 0 0.6 0"/>
<feBlend mode="normal" in2="BackgroundImageFix" result="effect1_dropShadow_513_6189"/>
<feBlend mode="normal" in="SourceGraphic" in2="effect1_dropShadow_513_6189" result="shape"/>
</filter>
<filter id="filter14_d_513_6189" x="64.6275" y="6.97666" width="28.8631" height="46.0462" filterUnits="userSpaceOnUse" color-interpolation-filters="sRGB">
<feFlood flood-opacity="0" result="BackgroundImageFix"/>
<feColorMatrix in="SourceAlpha" type="matrix" values="0 0 0 0 0 0 0 0 0 0 0 0 0 0 0 0 0 0 127 0" result="hardAlpha"/>
<feOffset/>
<feGaussianBlur stdDeviation="6.3"/>
<feComposite in2="hardAlpha" operator="out"/>
<feColorMatrix type="matrix" values="0 0 0 0 0 0 0 0 0 0 0 0 0 0 0 0 0 0 0.6 0"/>
<feBlend mode="normal" in2="BackgroundImageFix" result="effect1_dropShadow_513_6189"/>
<feBlend mode="normal" in="SourceGraphic" in2="effect1_dropShadow_513_6189" result="shape"/>
</filter>
<filter id="filter15_d_513_6189" x="57.3004" y="0.0279293" width="28.8631" height="59.9437" filterUnits="userSpaceOnUse" color-interpolation-filters="sRGB">
<feFlood flood-opacity="0" result="BackgroundImageFix"/>
<feColorMatrix in="SourceAlpha" type="matrix" values="0 0 0 0 0 0 0 0 0 0 0 0 0 0 0 0 0 0 127 0" result="hardAlpha"/>
<feOffset/>
<feGaussianBlur stdDeviation="6.3"/>
<feComposite in2="hardAlpha" operator="out"/>
<feColorMatrix type="matrix" values="0 0 0 0 0 0 0 0 0 0 0 0 0 0 0 0 0 0 0.6 0"/>
<feBlend mode="normal" in2="BackgroundImageFix" result="effect1_dropShadow_513_6189"/>
<feBlend mode="normal" in="SourceGraphic" in2="effect1_dropShadow_513_6189" result="shape"/>
</filter>
<filter id="filter16_d_513_6189" x="112.38" y="15.0836" width="28.8631" height="29.8323" filterUnits="userSpaceOnUse" color-interpolation-filters="sRGB">
<feFlood flood-opacity="0" result="BackgroundImageFix"/>
<feColorMatrix in="SourceAlpha" type="matrix" values="0 0 0 0 0 0 0 0 0 0 0 0 0 0 0 0 0 0 127 0" result="hardAlpha"/>
<feOffset/>
<feGaussianBlur stdDeviation="6.3"/>
<feComposite in2="hardAlpha" operator="out"/>
<feColorMatrix type="matrix" values="0 0 0 0 0 0 0 0 0 0 0 0 0 0 0 0 0 0 0.6 0"/>
<feBlend mode="normal" in2="BackgroundImageFix" result="effect1_dropShadow_513_6189"/>
<feBlend mode="normal" in="SourceGraphic" in2="effect1_dropShadow_513_6189" result="shape"/>
</filter>
<filter id="filter17_d_513_6189" x="117.876" y="13.9254" width="28.8631" height="32.1492" filterUnits="userSpaceOnUse" color-interpolation-filters="sRGB">
<feFlood flood-opacity="0" result="BackgroundImageFix"/>
<feColorMatrix in="SourceAlpha" type="matrix" values="0 0 0 0 0 0 0 0 0 0 0 0 0 0 0 0 0 0 127 0" result="hardAlpha"/>
<feOffset/>
<feGaussianBlur stdDeviation="6.3"/>
<feComposite in2="hardAlpha" operator="out"/>
<feColorMatrix type="matrix" values="0 0 0 0 0 0 0 0 0 0 0 0 0 0 0 0 0 0 0.6 0"/>
<feBlend mode="normal" in2="BackgroundImageFix" result="effect1_dropShadow_513_6189"/>
<feBlend mode="normal" in="SourceGraphic" in2="effect1_dropShadow_513_6189" result="shape"/>
</filter>
<filter id="filter18_d_513_6189" x="139.856" y="13.9254" width="28.8631" height="32.1492" filterUnits="userSpaceOnUse" color-interpolation-filters="sRGB">
<feFlood flood-opacity="0" result="BackgroundImageFix"/>
<feColorMatrix in="SourceAlpha" type="matrix" values="0 0 0 0 0 0 0 0 0 0 0 0 0 0 0 0 0 0 127 0" result="hardAlpha"/>
<feOffset/>
<feGaussianBlur stdDeviation="6.3"/>
<feComposite in2="hardAlpha" operator="out"/>
<feColorMatrix type="matrix" values="0 0 0 0 0 0 0 0 0 0 0 0 0 0 0 0 0 0 0.6 0"/>
<feBlend mode="normal" in2="BackgroundImageFix" result="effect1_dropShadow_513_6189"/>
<feBlend mode="normal" in="SourceGraphic" in2="effect1_dropShadow_513_6189" result="shape"/>
</filter>
<filter id="filter19_d_513_6189" x="125.204" y="11.609" width="28.8631" height="36.7815" filterUnits="userSpaceOnUse" color-interpolation-filters="sRGB">
<feFlood flood-opacity="0" result="BackgroundImageFix"/>
<feColorMatrix in="SourceAlpha" type="matrix" values="0 0 0 0 0 0 0 0 0 0 0 0 0 0 0 0 0 0 127 0" result="hardAlpha"/>
<feOffset/>
<feGaussianBlur stdDeviation="6.3"/>
<feComposite in2="hardAlpha" operator="out"/>
<feColorMatrix type="matrix" values="0 0 0 0 0 0 0 0 0 0 0 0 0 0 0 0 0 0 0.6 0"/>
<feBlend mode="normal" in2="BackgroundImageFix" result="effect1_dropShadow_513_6189"/>
<feBlend mode="normal" in="SourceGraphic" in2="effect1_dropShadow_513_6189" result="shape"/>
</filter>
<filter id="filter20_d_513_6189" x="132.529" y="11.609" width="28.8631" height="36.7815" filterUnits="userSpaceOnUse" color-interpolation-filters="sRGB">
<feFlood flood-opacity="0" result="BackgroundImageFix"/>
<feColorMatrix in="SourceAlpha" type="matrix" values="0 0 0 0 0 0 0 0 0 0 0 0 0 0 0 0 0 0 127 0" result="hardAlpha"/>
<feOffset/>
<feGaussianBlur stdDeviation="6.3"/>
<feComposite in2="hardAlpha" operator="out"/>
<feColorMatrix type="matrix" values="0 0 0 0 0 0 0 0 0 0 0 0 0 0 0 0 0 0 0.6 0"/>
<feBlend mode="normal" in2="BackgroundImageFix" result="effect1_dropShadow_513_6189"/>
<feBlend mode="normal" in="SourceGraphic" in2="effect1_dropShadow_513_6189" result="shape"/>
</filter>
<filter id="filter21_d_513_6189" x="147.184" y="9.29258" width="28.8631" height="41.4139" filterUnits="userSpaceOnUse" color-interpolation-filters="sRGB">
<feFlood flood-opacity="0" result="BackgroundImageFix"/>
<feColorMatrix in="SourceAlpha" type="matrix" values="0 0 0 0 0 0 0 0 0 0 0 0 0 0 0 0 0 0 127 0" result="hardAlpha"/>
<feOffset/>
<feGaussianBlur stdDeviation="6.3"/>
<feComposite in2="hardAlpha" operator="out"/>
<feColorMatrix type="matrix" values="0 0 0 0 0 0 0 0 0 0 0 0 0 0 0 0 0 0 0.6 0"/>
<feBlend mode="normal" in2="BackgroundImageFix" result="effect1_dropShadow_513_6189"/>
<feBlend mode="normal" in="SourceGraphic" in2="effect1_dropShadow_513_6189" result="shape"/>
</filter>
<filter id="filter22_d_513_6189" x="154.509" y="6.97666" width="28.8631" height="46.0462" filterUnits="userSpaceOnUse" color-interpolation-filters="sRGB">
<feFlood flood-opacity="0" result="BackgroundImageFix"/>
<feColorMatrix in="SourceAlpha" type="matrix" values="0 0 0 0 0 0 0 0 0 0 0 0 0 0 0 0 0 0 127 0" result="hardAlpha"/>
<feOffset/>
<feGaussianBlur stdDeviation="6.3"/>
<feComposite in2="hardAlpha" operator="out"/>
<feColorMatrix type="matrix" values="0 0 0 0 0 0 0 0 0 0 0 0 0 0 0 0 0 0 0.6 0"/>
<feBlend mode="normal" in2="BackgroundImageFix" result="effect1_dropShadow_513_6189"/>
<feBlend mode="normal" in="SourceGraphic" in2="effect1_dropShadow_513_6189" result="shape"/>
</filter>
<filter id="filter23_d_513_6189" x="161.836" y="0.0279293" width="28.8631" height="59.9437" filterUnits="userSpaceOnUse" color-interpolation-filters="sRGB">
<feFlood flood-opacity="0" result="BackgroundImageFix"/>
<feColorMatrix in="SourceAlpha" type="matrix" values="0 0 0 0 0 0 0 0 0 0 0 0 0 0 0 0 0 0 127 0" result="hardAlpha"/>
<feOffset/>
<feGaussianBlur stdDeviation="6.3"/>
<feComposite in2="hardAlpha" operator="out"/>
<feColorMatrix type="matrix" values="0 0 0 0 0 0 0 0 0 0 0 0 0 0 0 0 0 0 0.6 0"/>
<feBlend mode="normal" in2="BackgroundImageFix" result="effect1_dropShadow_513_6189"/>
<feBlend mode="normal" in="SourceGraphic" in2="effect1_dropShadow_513_6189" result="shape"/>
</filter>
<filter id="filter24_d_513_6189" x="218.619" y="15.0836" width="28.8631" height="29.8323" filterUnits="userSpaceOnUse" color-interpolation-filters="sRGB">
<feFlood flood-opacity="0" result="BackgroundImageFix"/>
<feColorMatrix in="SourceAlpha" type="matrix" values="0 0 0 0 0 0 0 0 0 0 0 0 0 0 0 0 0 0 127 0" result="hardAlpha"/>
<feOffset/>
<feGaussianBlur stdDeviation="6.3"/>
<feComposite in2="hardAlpha" operator="out"/>
<feColorMatrix type="matrix" values="0 0 0 0 0 0 0 0 0 0 0 0 0 0 0 0 0 0 0.6 0"/>
<feBlend mode="normal" in2="BackgroundImageFix" result="effect1_dropShadow_513_6189"/>
<feBlend mode="normal" in="SourceGraphic" in2="effect1_dropShadow_513_6189" result="shape"/>
</filter>
<filter id="filter25_d_513_6189" x="213.124" y="13.9254" width="28.8631" height="32.1492" filterUnits="userSpaceOnUse" color-interpolation-filters="sRGB">
<feFlood flood-opacity="0" result="BackgroundImageFix"/>
<feColorMatrix in="SourceAlpha" type="matrix" values="0 0 0 0 0 0 0 0 0 0 0 0 0 0 0 0 0 0 127 0" result="hardAlpha"/>
<feOffset/>
<feGaussianBlur stdDeviation="6.3"/>
<feComposite in2="hardAlpha" operator="out"/>
<feColorMatrix type="matrix" values="0 0 0 0 0 0 0 0 0 0 0 0 0 0 0 0 0 0 0.6 0"/>
<feBlend mode="normal" in2="BackgroundImageFix" result="effect1_dropShadow_513_6189"/>
<feBlend mode="normal" in="SourceGraphic" in2="effect1_dropShadow_513_6189" result="shape"/>
</filter>
<filter id="filter26_d_513_6189" x="191.143" y="13.9254" width="28.8631" height="32.1492" filterUnits="userSpaceOnUse" color-interpolation-filters="sRGB">
<feFlood flood-opacity="0" result="BackgroundImageFix"/>
<feColorMatrix in="SourceAlpha" type="matrix" values="0 0 0 0 0 0 0 0 0 0 0 0 0 0 0 0 0 0 127 0" result="hardAlpha"/>
<feOffset/>
<feGaussianBlur stdDeviation="6.3"/>
<feComposite in2="hardAlpha" operator="out"/>
<feColorMatrix type="matrix" values="0 0 0 0 0 0 0 0 0 0 0 0 0 0 0 0 0 0 0.6 0"/>
<feBlend mode="normal" in2="BackgroundImageFix" result="effect1_dropShadow_513_6189"/>
<feBlend mode="normal" in="SourceGraphic" in2="effect1_dropShadow_513_6189" result="shape"/>
</filter>
<filter id="filter27_d_513_6189" x="205.796" y="11.609" width="28.8631" height="36.7815" filterUnits="userSpaceOnUse" color-interpolation-filters="sRGB">
<feFlood flood-opacity="0" result="BackgroundImageFix"/>
<feColorMatrix in="SourceAlpha" type="matrix" values="0 0 0 0 0 0 0 0 0 0 0 0 0 0 0 0 0 0 127 0" result="hardAlpha"/>
<feOffset/>
<feGaussianBlur stdDeviation="6.3"/>
<feComposite in2="hardAlpha" operator="out"/>
<feColorMatrix type="matrix" values="0 0 0 0 0 0 0 0 0 0 0 0 0 0 0 0 0 0 0.6 0"/>
<feBlend mode="normal" in2="BackgroundImageFix" result="effect1_dropShadow_513_6189"/>
<feBlend mode="normal" in="SourceGraphic" in2="effect1_dropShadow_513_6189" result="shape"/>
</filter>
<filter id="filter28_d_513_6189" x="198.47" y="11.609" width="28.8631" height="36.7815" filterUnits="userSpaceOnUse" color-interpolation-filters="sRGB">
<feFlood flood-opacity="0" result="BackgroundImageFix"/>
<feColorMatrix in="SourceAlpha" type="matrix" values="0 0 0 0 0 0 0 0 0 0 0 0 0 0 0 0 0 0 127 0" result="hardAlpha"/>
<feOffset/>
<feGaussianBlur stdDeviation="6.3"/>
<feComposite in2="hardAlpha" operator="out"/>
<feColorMatrix type="matrix" values="0 0 0 0 0 0 0 0 0 0 0 0 0 0 0 0 0 0 0.6 0"/>
<feBlend mode="normal" in2="BackgroundImageFix" result="effect1_dropShadow_513_6189"/>
<feBlend mode="normal" in="SourceGraphic" in2="effect1_dropShadow_513_6189" result="shape"/>
</filter>
<filter id="filter29_d_513_6189" x="183.816" y="9.29258" width="28.8631" height="41.4139" filterUnits="userSpaceOnUse" color-interpolation-filters="sRGB">
<feFlood flood-opacity="0" result="BackgroundImageFix"/>
<feColorMatrix in="SourceAlpha" type="matrix" values="0 0 0 0 0 0 0 0 0 0 0 0 0 0 0 0 0 0 127 0" result="hardAlpha"/>
<feOffset/>
<feGaussianBlur stdDeviation="6.3"/>
<feComposite in2="hardAlpha" operator="out"/>
<feColorMatrix type="matrix" values="0 0 0 0 0 0 0 0 0 0 0 0 0 0 0 0 0 0 0.6 0"/>
<feBlend mode="normal" in2="BackgroundImageFix" result="effect1_dropShadow_513_6189"/>
<feBlend mode="normal" in="SourceGraphic" in2="effect1_dropShadow_513_6189" result="shape"/>
</filter>
<filter id="filter30_d_513_6189" x="176.49" y="6.97666" width="28.8631" height="46.0462" filterUnits="userSpaceOnUse" color-interpolation-filters="sRGB">
<feFlood flood-opacity="0" result="BackgroundImageFix"/>
<feColorMatrix in="SourceAlpha" type="matrix" values="0 0 0 0 0 0 0 0 0 0 0 0 0 0 0 0 0 0 127 0" result="hardAlpha"/>
<feOffset/>
<feGaussianBlur stdDeviation="6.3"/>
<feComposite in2="hardAlpha" operator="out"/>
<feColorMatrix type="matrix" values="0 0 0 0 0 0 0 0 0 0 0 0 0 0 0 0 0 0 0.6 0"/>
<feBlend mode="normal" in2="BackgroundImageFix" result="effect1_dropShadow_513_6189"/>
<feBlend mode="normal" in="SourceGraphic" in2="effect1_dropShadow_513_6189" result="shape"/>
</filter>
<filter id="filter31_d_513_6189" x="169.164" y="0.0279293" width="28.8631" height="59.9437" filterUnits="userSpaceOnUse" color-interpolation-filters="sRGB">
<feFlood flood-opacity="0" result="BackgroundImageFix"/>
<feColorMatrix in="SourceAlpha" type="matrix" values="0 0 0 0 0 0 0 0 0 0 0 0 0 0 0 0 0 0 127 0" result="hardAlpha"/>
<feOffset/>
<feGaussianBlur stdDeviation="6.3"/>
<feComposite in2="hardAlpha" operator="out"/>
<feColorMatrix type="matrix" values="0 0 0 0 0 0 0 0 0 0 0 0 0 0 0 0 0 0 0.6 0"/>
<feBlend mode="normal" in2="BackgroundImageFix" result="effect1_dropShadow_513_6189"/>
<feBlend mode="normal" in="SourceGraphic" in2="effect1_dropShadow_513_6189" result="shape"/>
</filter>
</defs>
</svg>
