<svg width="70" height="70" viewBox="0 0 70 70" fill="none" xmlns="http://www.w3.org/2000/svg">
<g id="icon5/question" clip-path="url(#clip0_513_7665)">
<path id="Vector" fill-rule="evenodd" clip-rule="evenodd" d="M0 0H70V70H0V0ZM31.5 45.5C31.5 39.1255 34.7974 36.5981 37.6964 34.3759C39.9707 32.6326 42 31.0772 42 28C42 24.15 38.85 21 35 21C31.15 21 28 24.15 28 28H21C21 20.265 27.265 14 35 14C42.735 14 49 20.265 49 28C49 32.4902 46.235 34.9066 43.5428 37.2593C40.9885 39.4916 38.5 41.6661 38.5 45.5H31.5ZM38.5 50.75V57.75H31.5V50.75H38.5Z" fill="#9C3131"/>
</g>
<defs>
<clipPath id="clip0_513_7665">
<rect width="70" height="70" fill="white"/>
</clipPath>
</defs>
</svg>
