<svg width="40" height="40" viewBox="0 0 40 40" fill="none" xmlns="http://www.w3.org/2000/svg">
<g id="icon8/file">
<g id="Vector">
<path d="M24.9996 3.25V10H31.7496L24.9996 3.25Z" fill="#9C3131"/>
<path d="M34.171 11.4286H24.171C23.3139 11.4286 22.7425 10.8571 22.7425 10V0H7.02818C6.17104 0 5.59961 0.00030241 5.59961 0.00030241V40C5.59961 40 6.17104 40 7.02818 40H34.171C34.171 39.6 34.171 39.4286 34.171 38.5714V15C34.171 13 34.171 13.9203 34.171 11.4286ZM18.4568 15.7143C18.4568 14.8572 19.0282 14.2857 19.8853 14.2857C20.7425 14.2857 21.3139 14.8572 21.3139 15.7143V24.2857C21.3139 25.1429 20.7425 25.7143 19.8853 25.7143C19.0282 25.7143 18.4568 25.1429 18.4568 24.2857V15.7143ZM12.7425 21.4286C12.7425 20.5714 13.3139 20 14.171 20C15.0282 20 15.5996 20.5714 15.5996 21.4286V24.2857C15.5996 25.1429 15.0282 25.7143 14.171 25.7143C13.3139 25.7143 12.7425 25.1429 12.7425 24.2857V21.4286ZM25.5996 30H14.171C13.3139 30 12.7425 29.4286 12.7425 28.5714C12.7425 27.7143 13.3139 27.1429 14.171 27.1429H25.5996C26.4568 27.1429 27.0282 27.7143 27.0282 28.5714C27.0282 29.4286 26.4568 30 25.5996 30ZM27.0282 24.2857C27.0282 25.1429 26.4568 25.7143 25.5996 25.7143C24.7425 25.7143 24.171 25.1429 24.171 24.2857V18.5714C24.171 17.7143 24.7425 17.1429 25.5996 17.1429C26.4568 17.1429 27.0282 17.7143 27.0282 18.5714V24.2857Z" fill="#9C3131"/>
</g>
</g>
</svg>
