<svg width="40" height="40" viewBox="0 0 40 40" fill="none" xmlns="http://www.w3.org/2000/svg">
<g clip-path="url(#clip0_705_3821)">
<path d="M21.0545 22.7914L15.5146 24.4911L17.2209 18.93C17.1679 18.9276 17.1141 18.9268 17.0603 18.9268C14.857 18.9268 13.0645 20.7202 13.0645 22.9234C13.0645 25.1266 14.857 26.9193 17.0603 26.9193C19.2644 26.9193 21.057 25.1267 21.057 22.9234C21.057 22.8794 21.0562 22.8354 21.0545 22.7914Z" fill="#9C3131"/>
<path d="M26.0716 19.8786L24.0899 21.8602L23.4438 22.0582C23.482 22.3433 23.5016 22.6318 23.5016 22.9235C23.5016 26.4753 20.6123 29.3638 17.0605 29.3638C13.5096 29.3638 10.6202 26.4753 10.6202 22.9235C10.6202 19.3717 13.5095 16.4824 17.0605 16.4824C17.3604 16.4824 17.6586 16.5028 17.9527 16.5443L18.1459 15.9161L20.138 13.9239C19.153 13.5875 18.1108 13.4131 17.0605 13.4131C11.8171 13.4131 7.55078 17.6794 7.55078 22.9236C7.55078 28.1677 11.8171 32.434 17.0605 32.434C22.3046 32.434 26.5709 28.1677 26.5709 22.9236C26.571 21.8854 26.4007 20.8546 26.0716 19.8786Z" fill="#9C3131"/>
<path d="M19.9437 18.3896L19.2031 20.8023L21.584 20.0722L19.9437 18.3896Z" fill="#9C3131"/>
<path d="M34.0562 0.00585938L30.8125 3.24961L31.6713 4.11906L32.5301 4.98844L35.0023 7.49156L35.8611 8.36094L36.7198 9.23039L40.0003 5.94992L34.0562 0.00585938Z" fill="#9C3131"/>
<path d="M27.9538 17.9957C28.6497 19.5357 29.0147 21.2215 29.0147 22.9229C29.0147 29.5146 23.6516 34.8778 17.0598 34.8778C10.468 34.8778 5.10562 29.5146 5.10562 22.9228C5.10562 16.3309 10.4679 10.9679 17.0598 10.9679C18.7741 10.9679 20.4698 11.3378 22.0179 12.0426L25.7831 8.27824C25.9534 8.37926 26.1221 8.48355 26.2883 8.59113C26.4724 8.71012 26.6533 8.83152 26.8318 8.95777C27.1691 9.19324 27.4975 9.44176 27.8161 9.70168L21.2698 16.2479L23.7248 18.7673L30.302 12.1902C30.5611 12.5088 30.8095 12.838 31.0459 13.1753C31.2846 13.5159 31.5111 13.8662 31.7246 14.2247L34.9912 10.9582L29.083 4.97754L25.7831 8.27824C23.2287 6.75207 20.2447 5.87387 17.0596 5.87387C7.65352 5.87363 0 13.5271 0 22.9342C0 32.3404 7.65352 39.9939 17.0598 39.9939C26.4668 39.9939 34.1203 32.3404 34.1203 22.9342C34.1203 19.7548 33.2459 16.7759 31.7246 14.2247L27.9538 17.9957Z" fill="#9C3131"/>
</g>
<defs>
<clipPath id="clip0_705_3821">
<rect width="40" height="40" fill="white"/>
</clipPath>
</defs>
</svg>
