<svg width="40" height="40" viewBox="0 0 40 40" fill="none" xmlns="http://www.w3.org/2000/svg">
<g id="icon8/strategy" clip-path="url(#clip0_639_8203)">
<g id="Vector">
<path d="M30.5705 35.1463C30.3688 34.5805 29.833 34.2026 29.2323 34.2026H7.70824C7.0215 34.2026 6.43308 34.6939 6.31052 35.3697L5.66769 38.9163C5.63833 39.0784 5.64439 39.2473 5.70096 39.4021C5.83631 39.7723 6.17988 40 6.55025 40H31.0019C31.1855 40 31.3691 39.9536 31.521 39.8507C31.8776 39.6091 32.0056 39.1743 31.871 38.7967L30.5705 35.1463Z" fill="#9C3131"/>
<path d="M34.1988 15.2284L27.2624 4.82363L28.5976 1.21365C28.7152 0.895667 28.6443 0.538494 28.4142 0.289604C28.1839 0.0403105 27.8332 -0.0584105 27.5074 0.0342498L20.9673 1.88382C20.3269 1.87237 17.9269 1.92166 15.2644 3.14133C12.4506 4.43022 8.80225 7.31508 7.40036 13.738C5.4654 22.6035 7.34877 29.3717 8.51753 32.4006H27.0399L28.6932 30.7472C28.993 30.4473 29.0431 29.9791 28.8138 29.6225C27.289 27.2527 23.6908 21.2846 22.2999 17.5713C22.8094 17.7454 23.3869 17.8577 23.9974 17.8258C24.8655 17.7804 25.6577 17.4627 26.3612 16.8793L28.9006 18.5724C29.6851 19.0955 30.6578 19.2567 31.5693 19.0147C32.4808 18.7726 33.2454 18.15 33.6672 17.3065L34.2551 16.1309C34.3998 15.8418 34.3782 15.4973 34.1988 15.2284ZM24.4605 9.43792H23.2357C22.7381 9.43792 22.3348 9.03455 22.3348 8.53704C22.3348 8.03939 22.7382 7.63616 23.2357 7.63616H24.4605C24.9581 7.63616 25.3614 8.03953 25.3614 8.53704C25.3614 9.03468 24.9581 9.43792 24.4605 9.43792Z" fill="#9C3131"/>
</g>
</g>
<defs>
<clipPath id="clip0_639_8203">
<rect width="40" height="40" fill="white"/>
</clipPath>
</defs>
</svg>
