<svg width="50" height="51" viewBox="0 0 50 51" fill="none" xmlns="http://www.w3.org/2000/svg">
<g id="Icon/ browser" clip-path="url(#clip0_514_2493)">
<g id="Vector">
<path d="M21.9755 33.3951C22.1377 35.9121 22.8592 38.2489 24.1234 40.3542C24.4051 40.8241 24.6888 41.2369 24.9551 41.5916C25.2214 41.2381 25.5051 40.8241 25.7867 40.3542C27.051 38.2489 27.7725 35.9121 27.9347 33.3951H21.9755Z" fill="#9C3131"/>
<path d="M15.1408 29.974H18.9918C19.353 26.3336 20.5132 23.3274 21.6143 21.1948C18.2378 22.5598 15.703 25.9071 15.1408 29.974Z" fill="#9C3131"/>
<path d="M24.9551 21.6888C23.9275 23.3972 22.5204 26.3065 22.0785 29.9742H27.8315C27.3898 26.3065 25.9837 23.3971 24.9551 21.6888Z" fill="#9C3131"/>
<path d="M18.9071 33.3951H15.1408C15.697 37.413 18.1786 40.7293 21.4959 42.1242C20.2745 40.0496 19.1051 37.1334 18.9071 33.3951Z" fill="#9C3131"/>
<path d="M31.003 33.3951C30.803 37.1643 29.6173 40.0976 28.3847 42.1743C31.7612 40.8092 34.2979 37.4608 34.8602 33.3951H31.003Z" fill="#9C3131"/>
<path d="M28.2725 21.1488C29.3807 23.2849 30.5551 26.3071 30.9184 29.9736H34.8602C34.2918 25.8613 31.7051 22.4843 28.2725 21.1488Z" fill="#9C3131"/>
<path d="M42.347 0.195801V8.06386H50V0.195801H42.347Z" fill="#9C3131"/>
<path d="M0 11.4847V50.9251H50V11.4847H0ZM25 46.256C17.8103 46.256 11.9622 39.7189 11.9622 31.6844C11.9622 23.6488 17.8102 17.1117 25 17.1117C32.1898 17.1117 38.0388 23.6487 38.0388 31.6844C38.0388 39.7189 32.1897 46.256 25 46.256Z" fill="#9C3131"/>
<path d="M0 0.195801V8.06386H39.2857V0.195801H0Z" fill="#9C3131"/>
</g>
</g>
<defs>
<clipPath id="clip0_514_2493">
<rect width="50" height="50" fill="white" transform="translate(0 0.560547)"/>
</clipPath>
</defs>
</svg>
