<svg width="50" height="51" viewBox="0 0 50 51" fill="none" xmlns="http://www.w3.org/2000/svg">
<g id="Icon/eye" clip-path="url(#clip0_514_3115)">
<g id="Vector">
<path d="M16.1457 26.2354C15.0218 26.8728 13.9317 27.6371 12.879 28.5292C11.2294 29.9268 10.044 31.34 9.35342 32.2577C10.0436 33.1744 11.2289 34.5882 12.879 35.9861C13.9311 36.8774 15.0203 37.6414 16.1433 38.2785C15.2537 36.5096 14.743 34.4527 14.743 32.2593C14.7429 30.0639 15.2546 28.0053 16.1457 26.2354Z" fill="#9C3131"/>
<path d="M31.5465 0.671875H0V10.6594H31.5465V0.671875Z" fill="#9C3131"/>
<path d="M34.6093 0.671875V10.6599H50V0.671875H34.6093ZM40.1475 6.69285H38.134V4.34929H40.1475V6.69285ZM43.3014 6.69285H41.2878V4.34929H43.3014V6.69285ZM46.455 6.69285H44.4415V4.34929H46.455V6.69285Z" fill="#9C3131"/>
<path d="M25.0127 23.8708C21.0388 23.8708 17.8057 27.6337 17.8057 32.2591C17.8057 36.8759 21.0268 40.633 24.9906 40.6468C25.0014 40.6468 25.012 40.6471 25.0227 40.6472C28.992 40.6408 32.2195 36.8805 32.2195 32.2591C32.2195 27.6338 28.9866 23.8708 25.0127 23.8708ZM25.0127 35.5323C23.4596 35.5323 22.2006 34.067 22.2006 32.2592C22.2006 30.4516 23.4596 28.9861 25.0127 28.9861C26.5657 28.9861 27.8248 30.4515 27.8248 32.2592C27.8248 34.067 26.5657 35.5323 25.0127 35.5323Z" fill="#9C3131"/>
<path d="M0 14.2253V50.4496H49.9997L49.9999 14.2253H0ZM43.9002 33.269C43.8328 33.3829 42.2139 36.0878 39.0932 38.7766C34.9657 42.3329 30.1095 44.2127 25.0493 44.2127C25.0425 44.2127 25.0356 44.2125 25.0288 44.2125C25.0234 44.2125 25.0181 44.2127 25.0127 44.2127C24.9677 44.2127 24.923 44.2114 24.8781 44.2107C19.8811 44.1687 15.0763 42.2937 10.9725 38.7796C7.83486 36.0929 6.19814 33.391 6.13008 33.2773L5.51904 32.2576L6.13008 31.2379C6.19814 31.1243 7.83477 28.4224 10.9725 25.7356C15.1231 22.1813 19.9909 20.3025 25.0494 20.3025C30.1095 20.3025 34.9658 22.1823 39.0933 25.7387C42.2139 28.4276 43.8329 31.1325 43.9003 31.2462L44.499 32.2576L43.9002 33.269Z" fill="#9C3131"/>
<path d="M37.1791 28.5253C36.1106 27.6146 35.0022 26.8372 33.8576 26.1922C34.7621 27.9717 35.2823 30.0461 35.2823 32.2594C35.2823 34.4638 34.7664 36.5303 33.8687 38.305C37.3205 36.3622 39.6117 33.6944 40.6813 32.2586C39.999 31.3429 38.8227 29.9262 37.1791 28.5253Z" fill="#9C3131"/>
</g>
</g>
<defs>
<clipPath id="clip0_514_3115">
<rect width="50" height="50" fill="white" transform="translate(0 0.560547)"/>
</clipPath>
</defs>
</svg>
