<svg width="50" height="51" viewBox="0 0 50 51" fill="none" xmlns="http://www.w3.org/2000/svg">
<g id="Icon/paper" clip-path="url(#clip0_513_7508)">
<g id="Vector">
<path d="M15.8655 28.0723H8.3833V34.394H15.8655V28.0723Z" fill="#9C3131"/>
<path d="M15.8655 8.65234H8.3833V14.9733H15.8655V8.65234Z" fill="#9C3131"/>
<path d="M15.8655 18.3633H8.3833V24.6843H15.8655V18.3633Z" fill="#9C3131"/>
<path d="M-0.751465 0.560547V50.5605H50.7513V0.560547H-0.751465ZM17.572 35.8366H6.67612V26.6303H17.5729L17.572 35.8366ZM17.572 26.1262H6.67612V16.9214H17.5729L17.572 26.1262ZM17.572 16.416H6.67612V7.2104H17.5729L17.572 16.416ZM39.0846 31.9547H20.447V30.5124H39.0846V31.9547ZM39.0846 22.2451H20.447V20.8027H39.0846V22.2451ZM39.0846 12.5347H20.447V11.0923H39.0846V12.5347Z" fill="#9C3131"/>
</g>
</g>
<defs>
<clipPath id="clip0_513_7508">
<rect width="50" height="50" fill="white" transform="translate(0 0.560547)"/>
</clipPath>
</defs>
</svg>
