<svg width="335" height="336" viewBox="0 0 335 336" fill="none" xmlns="http://www.w3.org/2000/svg">
<g clip-path="url(#clip0_639_8301)">
<path d="M291.773 32.9199V151.791H334.999V32.9199H291.773ZM324.193 140.984H302.58V43.7264H324.193V140.984Z" fill="#B0B0B0"/>
<path d="M237.742 87.5793C234.283 84.4887 230.68 81.5926 226.935 78.9072V76.1461H222.866C201.81 62.2166 176.917 54.5332 151.29 54.5332H145.887V189.614H280.967V184.211C280.967 173.231 279.514 162.371 276.785 151.791H280.967V54.5332H237.742V87.5793ZM156.693 178.807V65.4585C171.984 66.1609 186.881 69.873 200.616 76.1461H183.709V151.791H226.935V92.7178C230.717 95.8409 234.348 99.153 237.742 102.752V151.791H265.601C268.097 160.604 269.626 169.649 270.042 178.807H156.693ZM216.129 86.9526V140.985H194.516V86.9526H216.129ZM248.548 65.3397H270.161V140.985H248.548V65.3397Z" fill="#B0B0B0"/>
<path d="M88.0308 164.18L42.1074 210.104L49.7487 217.745L95.672 171.821L88.0308 164.18Z" fill="#B0B0B0"/>
<path d="M64.8393 168.001C64.8393 159.064 57.5665 151.791 48.6296 151.791C39.6927 151.791 32.4199 159.064 32.4199 168.001C32.4199 176.938 39.6927 184.21 48.6296 184.21C57.5665 184.21 64.8393 176.938 64.8393 168.001ZM43.2264 168.001C43.2264 165.018 45.647 162.597 48.6296 162.597C51.6122 162.597 54.0328 165.018 54.0328 168.001C54.0328 170.983 51.6122 173.404 48.6296 173.404C45.647 173.404 43.2264 170.983 43.2264 168.001Z" fill="#B0B0B0"/>
<path d="M91.8542 195.016C82.9173 195.016 75.6445 202.288 75.6445 211.225C75.6445 220.162 82.9173 227.435 91.8542 227.435C100.791 227.435 108.064 220.162 108.064 211.225C108.064 202.288 100.791 195.016 91.8542 195.016ZM91.8542 216.629C88.8716 216.629 86.451 214.208 86.451 211.225C86.451 208.243 88.8716 205.822 91.8542 205.822C94.8368 205.822 97.2574 208.243 97.2574 211.225C97.2574 214.208 94.8368 216.629 91.8542 216.629Z" fill="#B0B0B0"/>
<path d="M236.969 278.458C251.569 256.948 259.355 231.969 259.355 205.823V200.419H135.081V76.1452H129.677C124.339 76.1452 118.909 76.6152 113.468 77.3015V0.5H0V76.1452H68.005L78.5575 86.6977C31.2577 107.008 0 153.833 0 205.823C0 277.323 58.1765 335.5 129.677 335.5C161.032 335.5 190.901 324.164 214.503 303.691L231.22 320.409C234.505 323.694 238.828 325.342 243.145 325.342C247.462 325.342 251.785 323.694 255.07 320.409C261.646 313.833 261.646 303.135 255.07 296.559L236.969 278.458ZM72.4789 65.3387H10.8065V11.3065H102.661V95.5211L72.4789 65.3387ZM129.677 324.694C64.1309 324.694 10.8065 271.369 10.8065 205.823C10.8065 156.702 41.259 112.633 86.8677 95.0078L113.468 121.608V88.1403C117.083 87.6432 120.697 87.2434 124.274 87.0759V211.226H248.43C247.484 232.542 240.865 252.874 229.205 270.694L220.587 262.076C221.181 259.628 221.532 257.083 221.532 254.452C221.532 236.572 206.992 222.032 189.113 222.032C171.234 222.032 156.694 236.572 156.694 254.452C156.694 272.331 171.234 286.871 189.113 286.871C191.744 286.871 194.289 286.52 196.737 285.925L206.841 296.029C185.304 314.487 158.163 324.694 129.677 324.694ZM210.726 254.452C210.726 266.371 201.032 276.065 189.113 276.065C177.193 276.065 167.5 266.371 167.5 254.452C167.5 242.532 177.193 232.839 189.113 232.839C201.032 232.839 210.726 242.532 210.726 254.452ZM247.43 312.769C245.063 315.135 241.227 315.135 238.86 312.769L207.338 281.246C210.704 278.95 213.611 276.043 215.908 272.677L247.43 304.199C249.791 306.566 249.791 310.402 247.43 312.769Z" fill="#B0B0B0"/>
<path d="M91.8552 22.1133H21.6133V32.9197H91.8552V22.1133Z" fill="#B0B0B0"/>
<path d="M91.8552 43.7266H21.6133V54.533H91.8552V43.7266Z" fill="#B0B0B0"/>
<path d="M194.515 249.049H183.709V259.855H194.515V249.049Z" fill="#B0B0B0"/>
<path d="M145.887 249.049H135.08V259.855H145.887V249.049Z" fill="#B0B0B0"/>
<path d="M124.273 249.049H113.467V259.855H124.273V249.049Z" fill="#B0B0B0"/>
<path d="M102.662 249.049H91.8555V259.855H102.662V249.049Z" fill="#B0B0B0"/>
</g>
<defs>
<clipPath id="clip0_639_8301">
<rect width="335" height="335" fill="white" transform="translate(0 0.5)"/>
</clipPath>
</defs>
</svg>
