<svg width="85" height="85" viewBox="0 0 85 85" fill="none" xmlns="http://www.w3.org/2000/svg">
<path id="Vector" d="M42.5 0C19.0279 0 0 19.0279 0 42.5C0 65.9721 19.0279 85 42.5 85C65.9721 85 85 65.9721 85 42.5C85 19.0279 65.9721 0 42.5 0ZM27.5483 59.4128C27.5483 60.5303 26.6424 61.4362 25.5249 61.4362H19.455C18.3376 61.4362 17.4316 60.5303 17.4316 59.4128V34.1214C17.4316 33.0039 18.3376 32.098 19.455 32.098H25.5249C26.6424 32.098 27.5483 33.0039 27.5483 34.1214V59.4128ZM69.0544 38.8359L64.3423 56.8984C63.6451 59.5712 61.2312 61.4361 58.469 61.4361H41.7114C37.2416 61.4361 33.6182 57.8126 33.6182 53.3428V35.4505C33.6182 33.3041 34.4708 31.2455 35.9887 29.7278L47.7517 17.9647C48.4186 17.2978 49.3229 16.9233 50.266 16.9233C52.9504 16.9233 54.6666 19.7837 53.4034 22.1523L49.7175 29.0632C48.9844 30.438 49.9805 32.0981 51.5386 32.0981H63.8489C66.8201 32.0981 69.2287 34.5067 69.2287 37.4779C69.2285 37.9361 69.1699 38.3924 69.0544 38.8359Z" fill="#818181"/>
</svg>
