<svg width="30" height="50" viewBox="0 0 30 50" fill="none" xmlns="http://www.w3.org/2000/svg">
<path id="Vector" d="M0.814541 26.951L23.5389 49.2012C24.0645 49.7163 24.7661 50 25.5142 50C26.2624 50 26.964 49.7163 27.4896 49.2012L29.163 47.563C30.252 46.4956 30.252 44.7606 29.163 43.6948L10.0808 25.0104L29.1842 6.30523C29.7098 5.7902 30 5.10361 30 4.37151C30 3.63859 29.7098 2.95201 29.1842 2.43657L27.5107 0.798775C26.9847 0.283737 26.2835 3.24905e-07 25.5354 3.90307e-07C24.7873 4.55709e-07 24.0857 0.283738 23.5601 0.798775L0.81454 23.0693C0.287708 23.586 -0.00165592 24.2758 5.44462e-06 25.0091C-0.00165579 25.7453 0.287708 26.4347 0.814541 26.951Z" fill="#8D8D8D"/>
</svg>
