<svg width="18" height="14" viewBox="0 0 18 14" fill="none" xmlns="http://www.w3.org/2000/svg">
<path id="Vector" d="M15.2377 1.16057C14.0707 0.613944 12.8392 0.224147 11.5739 0.000946976C11.5624 -0.00122367 11.5505 0.000359229 11.5399 0.0054701C11.5294 0.010581 11.5207 0.0189599 11.515 0.0294166C11.3568 0.316499 11.1815 0.691195 11.0588 0.985624C9.67524 0.774215 8.29887 0.774215 6.94373 0.985624C6.82097 0.684582 6.63935 0.316499 6.48041 0.0294166C6.47453 0.0191745 6.46576 0.0109796 6.45524 0.005901C6.44473 0.000822427 6.43295 -0.000904125 6.42146 0.000946976C5.15607 0.223696 3.92445 0.61351 2.75764 1.16057C2.74766 1.1649 2.73923 1.17228 2.73352 1.1817C0.399996 4.7391 -0.239185 8.20907 0.0743753 11.6361C0.075248 11.6445 0.0777698 11.6526 0.0817901 11.66C0.0858104 11.6674 0.0912469 11.6739 0.0977754 11.679C1.63732 12.8328 3.12871 13.5332 4.59239 13.9975C4.60377 14.0009 4.61592 14.0008 4.62722 13.997C4.63851 13.9932 4.6484 13.986 4.65557 13.9763C5.0018 13.4938 5.31041 12.9852 5.5751 12.4502C5.57874 12.4429 5.58083 12.4348 5.58121 12.4266C5.58159 12.4184 5.58026 12.4102 5.57731 12.4026C5.57436 12.3949 5.56985 12.388 5.56409 12.3823C5.55832 12.3765 5.55143 12.3721 5.54387 12.3693C5.05427 12.1797 4.58816 11.9488 4.13978 11.6864C4.13161 11.6815 4.12475 11.6746 4.11981 11.6663C4.11486 11.6581 4.11198 11.6487 4.11142 11.6391C4.11086 11.6294 4.11264 11.6198 4.11659 11.611C4.12055 11.6022 4.12656 11.5945 4.13411 11.5887C4.22869 11.5165 4.32166 11.4422 4.41293 11.3657C4.42092 11.359 4.43059 11.3546 4.44087 11.3532C4.45114 11.3518 4.4616 11.3533 4.47107 11.3576C7.41695 12.73 10.6061 12.73 13.5172 11.3576C13.5267 11.353 13.5373 11.3513 13.5477 11.3526C13.5581 11.3539 13.568 11.3582 13.5761 11.365C13.6675 11.4419 13.7607 11.5165 13.8557 11.5887C13.8632 11.5945 13.8693 11.6021 13.8733 11.6108C13.8773 11.6196 13.8792 11.6292 13.8787 11.6389C13.8782 11.6485 13.8754 11.6579 13.8705 11.6662C13.8656 11.6745 13.8588 11.6814 13.8507 11.6864C13.4021 11.9537 12.9321 12.1819 12.4459 12.3686C12.4383 12.3715 12.4315 12.376 12.4258 12.3819C12.4201 12.3877 12.4156 12.3947 12.4127 12.4024C12.4099 12.4101 12.4086 12.4184 12.4091 12.4266C12.4095 12.4348 12.4117 12.4429 12.4154 12.4502C12.6847 12.9809 12.9917 13.4907 13.3341 13.9756C13.3411 13.9855 13.3509 13.993 13.3623 13.9969C13.3736 14.0008 13.3858 14.001 13.3973 13.9975C14.8681 13.5332 16.3595 12.8328 17.8991 11.679C17.9057 11.6741 17.9112 11.6678 17.9152 11.6605C17.9193 11.6532 17.9217 11.6451 17.9225 11.6368C18.2978 7.67486 17.2938 4.23326 15.2611 1.18243C15.2561 1.17252 15.2478 1.16476 15.2377 1.16057ZM6.01502 9.54943C5.12807 9.54943 4.39727 8.71858 4.39727 7.69818C4.39727 6.67778 5.11394 5.84693 6.01502 5.84693C6.92312 5.84693 7.64681 6.68513 7.6326 7.69818C7.6326 8.71858 6.91601 9.54943 6.01502 9.54943ZM11.9961 9.54943C11.1091 9.54943 10.3784 8.71858 10.3784 7.69818C10.3784 6.67778 11.095 5.84693 11.9961 5.84693C12.9042 5.84693 13.6279 6.68513 13.6137 7.69818C13.6137 8.71858 12.9042 9.54943 11.9961 9.54943Z" fill="#AAAAAA"/>
</svg>
