<svg width="17" height="17" viewBox="0 0 17 17" fill="none" xmlns="http://www.w3.org/2000/svg">
<path id="Vector" d="M2.1716 0.378173L0.0503496 5.32817C0.0012822 5.4429 -0.0123201 5.56969 0.0112941 5.69222C0.0349083 5.81474 0.0946577 5.9274 0.18285 6.01567L10.1904 16.0232C10.2786 16.1114 10.3913 16.1711 10.5138 16.1947C10.6363 16.2183 10.7631 16.2047 10.8779 16.1557L15.8279 14.0344C15.9217 13.9942 16.0043 13.9316 16.0685 13.8521C16.1326 13.7726 16.1762 13.6786 16.1956 13.5784C16.2149 13.4781 16.2094 13.3746 16.1795 13.2769C16.1496 13.1793 16.0963 13.0904 16.0241 13.0182L13.3116 10.3069C13.2188 10.2143 13.0992 10.1533 12.9697 10.1324C12.8403 10.1116 12.7076 10.132 12.5904 10.1907L10.0479 11.4619L4.74535 6.15817L6.01535 3.61567C6.07407 3.49845 6.09444 3.36573 6.07358 3.23629C6.05272 3.10686 5.99168 2.98726 5.8991 2.89442L3.1866 0.181923C3.11433 0.110024 3.02557 0.0568939 2.92806 0.0271655C2.83054 -0.00256293 2.72724 -0.00798742 2.62715 0.0113649C2.52706 0.0307173 2.43322 0.0742589 2.35382 0.138194C2.27442 0.202129 2.21186 0.284516 2.1716 0.378173Z" fill="#AAAAAA"/>
</svg>
