<svg width="15" height="13" viewBox="0 0 15 13" fill="none" xmlns="http://www.w3.org/2000/svg">
<path id="Vector" d="M1.00767 5.23059C4.94377 3.51609 7.56783 2.38568 8.87986 1.83956C12.6303 0.2801 13.4087 0.00925573 13.917 7.99502e-05C14.0288 -0.00171302 14.2778 0.0259196 14.4402 0.157228C14.5752 0.26797 14.6131 0.417736 14.6321 0.522889C14.649 0.627935 14.6722 0.86735 14.6532 1.05424C14.4507 3.18893 13.5711 8.36913 13.1239 10.7601C12.9362 11.7718 12.5628 12.1109 12.2021 12.1441C11.4174 12.2162 10.8226 11.626 10.0632 11.1284C8.87564 10.3494 8.20486 9.86468 7.05103 9.10467C5.71791 8.22633 6.58275 7.74349 7.34213 6.95458C7.54041 6.74808 10.9956 3.60616 11.061 3.32118C11.0694 3.28554 11.0778 3.15265 10.9977 3.08261C10.9196 3.01237 10.8036 3.03642 10.7192 3.0554C10.599 3.0824 8.70267 4.33706 5.02392 6.81916C4.48603 7.18915 3.99877 7.3695 3.56002 7.36C3.07908 7.34967 2.15096 7.08747 1.46119 6.86346C0.617441 6.58861 -0.0554504 6.44327 0.00361212 5.97647C0.0331434 5.73347 0.368534 5.48477 1.00767 5.23059Z" fill="#AAAAAA"/>
</svg>
