<svg width="70" height="71" viewBox="0 0 70 71" fill="none" xmlns="http://www.w3.org/2000/svg">
<g id="icon3/groups" clip-path="url(#clip0_513_7391)">
<g id="Vector">
<path d="M35 11.7809C38.1151 11.7809 40.6404 9.25555 40.6404 6.14043C40.6404 3.02531 38.1151 0.5 35 0.5C31.8849 0.5 29.3596 3.02531 29.3596 6.14043C29.3596 9.25555 31.8849 11.7809 35 11.7809Z" fill="#9C3131"/>
<path d="M23.5666 18.4121C23.5666 23.6716 23.5666 24.8911 23.5666 24.8911C23.5666 24.8911 34.6949 24.8911 34.7331 24.8911L29.2831 13.0767C29.2831 13.0767 23.5666 13.1529 23.5666 18.4121Z" fill="#9C3131"/>
<path d="M46.4334 18.4121C46.4334 13.1529 40.7167 13.0767 40.7167 13.0767L35.2667 24.8911H46.4333C46.4333 24.8911 46.4334 23.6716 46.4334 18.4121Z" fill="#9C3131"/>
<path d="M31.0746 13.0767L35 21.7659L38.9254 13.0767H31.0746Z" fill="#9C3131"/>
<path d="M58.5667 57.3899C61.6818 57.3899 64.2072 54.8646 64.2072 51.7494C64.2072 48.6343 61.6818 46.109 58.5667 46.109C55.4516 46.109 52.9263 48.6343 52.9263 51.7494C52.9263 54.8646 55.4516 57.3899 58.5667 57.3899Z" fill="#9C3131"/>
<path d="M47.1334 64.0212C47.1334 69.2806 47.1334 70.5 47.1334 70.5C47.1334 70.5 58.2616 70.5 58.2999 70.5L52.85 58.6856C52.85 58.6856 47.1334 58.7619 47.1334 64.0212Z" fill="#9C3131"/>
<path d="M64.2833 58.6856L58.8336 70.5H70C70 70.5 70 69.2804 70 64.0212C70 58.7619 64.2833 58.6856 64.2833 58.6856Z" fill="#9C3131"/>
<path d="M62.4921 58.6856H54.6413L58.5666 67.3749L62.4921 58.6856Z" fill="#9C3131"/>
<path d="M11.4334 57.3899C14.5486 57.3899 17.0739 54.8646 17.0739 51.7494C17.0739 48.6343 14.5486 46.109 11.4334 46.109C8.31831 46.109 5.793 48.6343 5.793 51.7494C5.793 54.8646 8.31831 57.3899 11.4334 57.3899Z" fill="#9C3131"/>
<path d="M5.71671 58.6856C5.71671 58.6856 0 58.7619 0 64.0212C0 69.2804 0 70.5 0 70.5C0 70.5 11.1283 70.5 11.1666 70.5L5.71671 58.6856Z" fill="#9C3131"/>
<path d="M22.8666 64.0212C22.8666 58.7619 17.15 58.6856 17.15 58.6856L11.7001 70.5H22.8666C22.8666 70.5 22.8666 69.2804 22.8666 64.0212Z" fill="#9C3131"/>
<path d="M7.50786 58.6856L11.4334 67.3749L15.3589 58.6856H7.50786Z" fill="#9C3131"/>
<path d="M9.24557 41.7336H13.6206V37.6981H56.3794V41.7336H60.7544V33.3231H37.4546V29.2664H33.0796V33.3231H9.24557V41.7336Z" fill="#9C3131"/>
</g>
</g>
<defs>
<clipPath id="clip0_513_7391">
<rect width="70" height="70" fill="white" transform="translate(0 0.5)"/>
</clipPath>
</defs>
</svg>
