<svg width="70" height="70" viewBox="0 0 70 70" fill="none" xmlns="http://www.w3.org/2000/svg">
<g id="icon3/frilance" clip-path="url(#clip0_513_7386)">
<path id="Vector" d="M66.2222 33.9318L59.0278 64.2615H48.1111C48.1111 60.3557 46.0556 57.4463 43.1944 57.4463H26.25C26.25 57.4463 22.3889 38.6347 20.3333 33.8521C19 30.7434 16.9444 28.7905 14.25 28.7905C10.0833 28.7905 6.94444 33.7325 4.66667 40.8666C1.88889 49.555 0.305556 59.8775 0 70.0006H60.4167C61.2778 70.0006 62.0556 69.2035 62.3333 68.0079L70 35.7651L66.2222 33.9318ZM35 18.8267C35 26.0007 30.9444 31.8195 25.9444 31.8195C20.9444 31.8195 16.8889 26.0007 16.8889 18.8267C16.8889 11.6528 20.9444 5.83398 25.9444 5.83398C26.5278 5.83398 27.0833 5.91369 27.6111 6.07311L25.5556 12.4101C25.4722 12.4101 25.3611 12.3702 25.2778 12.3702C23.1667 12.3702 21.4444 14.8412 21.4444 17.8702C21.4444 20.8992 23.1667 23.3702 25.2778 23.3702C27.3889 23.3702 29.1111 20.8992 29.1111 17.8702C29.1111 16.3956 28.6944 15.0405 28.0278 14.0441L30.2222 7.34848C33.0556 9.58036 35 13.8847 35 18.8267Z" fill="#9C3131"/>
</g>
<defs>
<clipPath id="clip0_513_7386">
<rect width="70" height="70" fill="white"/>
</clipPath>
</defs>
</svg>
