<svg width="210" height="55" viewBox="0 0 210 55" fill="none" xmlns="http://www.w3.org/2000/svg">
<g id="logo/hugo">
<g id="Vector">
<path d="M134.031 0.338689C123.775 2.64011 117.361 10.4121 116.801 21.2024C116.242 31.9926 121.761 40.406 131.607 43.877C134.74 44.9711 141.974 45.0843 145.853 44.1034C148.986 43.3111 152.79 41.4624 154.729 39.8023L156.221 38.4819V19.6932H140.93V27.6161H147.307L147.084 33.8036L145.405 34.6713C141.639 36.6332 136.045 36.5577 132.763 34.4827C129.034 32.1813 127.355 27.9934 127.542 21.4287C127.691 17.7691 127.84 16.9768 128.735 15.0904C130.041 12.4494 132.539 10.148 135.038 9.28026C139.215 7.88432 145.144 9.35572 147.606 12.4117L148.725 13.8076L152.006 10.6385C153.797 8.86525 155.326 7.35612 155.4 7.20521C155.624 6.71475 151.596 3.4324 149.396 2.33828C145.89 0.640514 143.168 0.0745917 138.693 0.11232C136.53 0.150048 134.441 0.225504 134.031 0.338689Z" fill="#9C3131"/>
<path d="M181.208 0.226148C173.041 1.58436 166.141 8.37543 164.389 16.7511C163.755 19.8825 163.829 25.6927 164.575 28.6354C167.186 39.0861 176.434 45.4999 187.66 44.7076C197.841 43.9908 205.523 37.5016 207.537 27.8809C208.358 23.9572 208.059 18.1093 206.866 14.261C204.665 7.35677 199.109 2.22574 191.986 0.527974C189.785 -0.000220507 183.52 -0.188861 181.208 0.226148ZM191.501 9.88455C192.545 10.4127 193.888 11.4314 194.447 12.1105C198.587 17.0906 198.437 28.2204 194.149 32.7101C189.45 37.6902 180.052 36.8979 176.658 31.2764C174.383 27.5413 173.861 20.2975 175.465 15.6192C176.36 13.0537 179.381 10.0355 181.805 9.24318C184.602 8.3377 189.114 8.63952 191.501 9.88455Z" fill="#9C3131"/>
<path d="M33 44.3019H43.4422V26.1924H57.0542L56.8305 44.3019H67.3099V0.914526H57.2407V17.5149H43.4422L43.4049 14.7608C43.3676 11.1766 43.1811 3.25367 43.1065 1.93319L43.0692 0.914526H33V44.3019Z" fill="#9C3131"/>
<path d="M75.0491 16.6849C75.0491 33.7003 75.1983 35.2094 77.063 38.2277C78.2191 40.0764 80.6432 42.1514 82.8062 43.1701C87.8781 45.5847 95.9707 45.6224 101.304 43.2078C103.69 42.1514 106.562 39.2841 107.755 36.794L108.8 34.6812L109.023 0.914532H98.9542L98.8423 16.4585C98.7305 31.8894 98.7305 32.0403 97.8727 33.3985C96.7539 35.2849 94.8146 36.1526 91.9431 36.1149C88.9596 36.0772 87.0949 35.134 86.088 33.1344C85.3421 31.7384 85.3048 30.9839 85.193 16.2699L85.0811 0.914532H75.0491V16.6849Z" fill="#9C3131"/>
</g>
</g>
</svg>
